<svg width="324" height="210" viewBox="0 0 324 210" fill="none" xmlns="http://www.w3.org/2000/svg">
<mask id="mask0_6614_3002" style="mask-type:alpha" maskUnits="userSpaceOnUse" x="0" y="0" width="324" height="210">
<rect width="323.077" height="210" fill="#D9D9D9"/>
</mask>
<g mask="url(#mask0_6614_3002)">
<path d="M177.14 255.777C142.304 255.777 90.6426 234.218 51.8635 185.317C28.4646 155.74 20.1829 124.322 30.3049 103.158C36.8776 89.3552 50.4175 81.7308 68.5582 81.7308C85.1215 81.5994 101.159 68.3225 118.248 54.1254C146.774 30.3321 179.111 3.3839 223.543 31.3837C250.886 48.6043 249.571 75.421 248.257 101.449C247.336 120.378 246.416 138.388 256.012 152.453C265.74 166.913 265.74 186.369 255.75 205.824C241.027 234.481 209.609 254.988 179.374 255.777C178.586 255.777 177.797 255.777 177.14 255.777ZM186.342 20.7359C160.314 20.7359 138.755 38.6137 119.168 55.0455C101.948 69.3741 85.7788 82.9139 68.6897 82.9139C51.2062 83.0454 37.9293 90.4068 31.6195 103.684C21.7604 124.322 29.9106 155.214 53.0466 184.397C91.5628 232.904 142.699 254.331 177.271 254.331C177.928 254.331 178.717 254.331 179.374 254.331C209.083 253.542 240.106 233.298 254.566 205.167C264.294 186.237 264.426 167.308 254.961 153.242C245.102 138.651 246.153 119.721 247.074 101.318C248.388 75.6839 249.703 49.2615 223.017 32.4354C209.609 24.1537 197.515 20.7359 186.342 20.7359Z" fill="#FCCA19"/>
<path d="M72.107 186.763C72.107 186.763 71.9755 186.763 72.107 186.763C71.5812 186.894 71.1867 186.631 71.0553 186.237C59.4873 135.89 16.3702 109.467 15.9759 109.205C15.5815 108.942 15.45 108.547 15.7129 108.153C15.9759 107.758 16.3702 107.627 16.7646 107.89C17.1589 108.153 60.9333 134.838 72.6328 185.843C72.6328 186.237 72.5014 186.631 72.107 186.763Z" fill="#2C2C2C"/>
<path d="M53.4398 146.801C53.4398 146.801 42.9234 144.434 34.5103 148.115C24.9141 152.322 20.5762 160.34 20.5762 160.34C20.5762 160.34 32.8015 162.444 40.5573 159.026C48.1816 155.608 53.4398 146.801 53.4398 146.801Z" fill="#2C2C2C"/>
<path d="M39.7692 128.791C39.7692 128.791 31.0932 126.951 24.389 129.712C16.6332 132.998 13.084 139.176 13.084 139.176C13.084 139.176 23.0746 140.885 29.3844 138.256C35.5627 135.627 39.7692 128.791 39.7692 128.791Z" fill="#2C2C2C"/>
<path d="M44.8972 100.792C44.8972 100.792 38.9818 106.707 37.7987 113.543C36.4841 121.43 39.7705 127.345 39.7705 127.345C39.7705 127.345 46.2118 120.247 47.2634 113.937C48.315 107.627 44.8972 100.792 44.8972 100.792Z" fill="#2C2C2C"/>
<path d="M28.466 118.143C28.466 118.143 22.682 114.725 17.0295 115.251C10.5882 115.909 6.64453 119.721 6.64453 119.721C6.64453 119.721 13.4802 123.27 18.6069 122.744C23.8651 122.218 28.466 118.143 28.466 118.143Z" fill="#2C2C2C"/>
<path d="M29.9108 94.8762C29.9108 94.8762 25.9672 100.266 25.8357 105.918C25.7043 112.36 29.1221 116.698 29.1221 116.698C29.1221 116.698 33.3286 110.256 33.4601 105.13C33.5915 100.003 29.9108 94.8762 29.9108 94.8762Z" fill="#2C2C2C"/>
<path d="M17.9487 109.599C17.9487 109.599 15.8455 105.13 12.0333 102.763C7.56383 100.134 2.96289 100.397 2.96289 100.397C2.96289 100.397 5.592 105.524 9.14127 107.627C12.822 109.73 17.9487 109.599 17.9487 109.599Z" fill="#2C2C2C"/>
<path d="M291.24 223.965H60.4054C57.6449 223.965 55.4102 221.73 55.4102 218.969V46.6325C55.4102 43.8719 57.6449 41.6372 60.4054 41.6372H291.371C294.132 41.6372 296.366 43.8719 296.366 46.6325V218.969C296.235 221.73 294 223.965 291.24 223.965Z" fill="white"/>
<path d="M291.241 224.359H60.4072C57.3837 224.359 55.0176 221.993 55.0176 218.969V46.6323C55.0176 43.6089 57.3837 41.2427 60.4072 41.2427H291.373C294.396 41.2427 296.763 43.6089 296.763 46.6323V218.969C296.763 221.993 294.265 224.359 291.241 224.359ZM60.4072 42.1629C57.9095 42.1629 55.9377 44.1347 55.9377 46.6323V218.969C55.9377 221.467 57.9095 223.439 60.4072 223.439H291.373C293.871 223.439 295.842 221.467 295.842 218.969V46.6323C295.842 44.1347 293.871 42.1629 291.373 42.1629H60.4072Z" fill="#696969"/>
<path d="M201.064 125.242H279.28V127.345H201.064V125.242Z" fill="#BBBBBB"/>
<path d="M201.064 129.449H279.28V131.552H201.064V129.449Z" fill="#BBBBBB"/>
<path d="M104.313 60.3035H185.42C187.392 60.3035 188.97 61.8809 188.97 63.8527V158.369C188.97 160.34 187.392 161.918 185.42 161.918H104.313C102.341 161.918 100.764 160.34 100.764 158.369V63.8527C100.764 61.8809 102.341 60.3035 104.313 60.3035Z" fill="#F3F3F3"/>
<path d="M140.2 92.51L112.463 91.9842L113.909 91.1954C119.693 87.7776 129.158 81.7307 129.552 80.1532C129.815 79.3645 129.552 78.5758 129.158 78.05C128.763 77.5242 128.106 77.2612 127.449 77.2612C126.003 77.2612 125.346 79.2331 125.346 79.2331L124.425 78.9702C124.425 78.8387 125.214 76.4725 127.317 76.3411C128.238 76.3411 129.158 76.7354 129.815 77.5242C130.472 78.3129 130.735 79.496 130.472 80.4162C130.341 81.0734 129.158 82.1251 127.712 83.3082L140.2 92.51ZM115.618 91.064L137.308 91.4583L126.791 83.7025C123.374 86.3316 118.378 89.3551 115.618 91.064Z" fill="#B1C7F0"/>
<path d="M250.097 89.092H200.539V98.8197H250.097V89.092Z" fill="#DFDFDF"/>
<path d="M237.738 88.9603C237.606 88.9603 237.475 88.8289 237.475 88.6974V81.8618C237.475 81.7303 237.606 81.5989 237.738 81.5989C237.869 81.5989 238 81.7303 238 81.8618V88.6974C238 88.8289 237.869 88.9603 237.738 88.9603Z" fill="#004DEF"/>
<path d="M241.027 83.834H245.102L243.131 86.726L241.027 83.834Z" fill="white"/>
<path d="M243.262 86.989C243.131 86.989 242.999 86.989 242.999 86.8575L240.765 83.9655C240.633 83.8341 240.633 83.7026 240.765 83.5711C240.765 83.4397 240.896 83.4397 241.028 83.4397H245.103C245.234 83.4397 245.366 83.5711 245.366 83.5711C245.366 83.7026 245.366 83.8341 245.366 83.9655L243.394 86.8575C243.394 86.989 243.394 86.989 243.262 86.989ZM241.685 84.097L243.262 86.0688L244.577 84.097H241.685Z" fill="#004DEF"/>
<path d="M226.173 120.115H204.746C202.379 120.115 200.539 118.275 200.539 115.909V113.806C200.539 111.439 202.379 109.599 204.746 109.599H226.173C228.539 109.599 230.379 111.439 230.379 113.806V115.909C230.379 118.275 228.539 120.115 226.173 120.115Z" fill="#DFDFDF"/>
<path d="M295.841 51.1018H55.6738V52.022H295.841V51.1018Z" fill="#696969"/>
<path d="M63.2984 49.13C61.9839 49.13 60.8008 48.0784 60.8008 46.6324C60.8008 45.3179 61.8524 44.1348 63.2984 44.1348C64.613 44.1348 65.796 45.1864 65.796 46.6324C65.796 48.0784 64.613 49.13 63.2984 49.13ZM63.2984 45.1864C62.5097 45.1864 61.721 45.8437 61.721 46.7639C61.721 47.684 62.3783 48.3413 63.2984 48.3413C64.0872 48.3413 64.8759 47.684 64.8759 46.7639C64.8759 45.8437 64.0872 45.1864 63.2984 45.1864Z" fill="#DFDFDF"/>
<path d="M68.4277 46.7638C68.4277 45.4492 69.4794 44.2661 70.9254 44.2661C72.2399 44.2661 73.4231 45.3178 73.4231 46.7638C73.4231 48.0783 72.3714 49.2614 70.9254 49.2614C69.6109 49.1299 68.4277 48.0783 68.4277 46.7638Z" fill="#DFDFDF"/>
<path d="M78.549 49.2614C77.103 49.2614 75.9199 48.0783 75.9199 46.6323C75.9199 45.1863 77.103 44.0032 78.549 44.0032C79.995 44.0032 81.1781 45.1863 81.1781 46.6323C81.1781 48.2097 79.995 49.2614 78.549 49.2614ZM78.549 45.0548C77.6288 45.0548 76.8401 45.8435 76.8401 46.7637C76.8401 47.6839 77.6288 48.4726 78.549 48.4726C79.4692 48.4726 80.2579 47.6839 80.2579 46.7637C80.2579 45.8435 79.4692 45.0548 78.549 45.0548Z" fill="#DFDFDF"/>
<path d="M266.793 48.9985H107.208C106.156 48.9985 105.367 48.2098 105.367 47.1582V46.6324C105.367 45.5807 106.156 44.792 107.208 44.792H266.925C267.976 44.792 268.765 45.5807 268.765 46.6324V47.1582C268.765 48.2098 267.845 48.9985 266.793 48.9985Z" fill="#DFDFDF"/>
<path d="M83.2812 90.9324L83.5441 97.8995C83.5441 97.8995 85.3845 100.791 89.1967 100.003C93.0089 99.214 94.4549 97.2422 94.4549 97.2422L89.854 91.7211L83.2812 90.9324Z" fill="#FEB49C"/>
<path d="M84.7272 87.909C84.7272 87.909 80.6521 86.2001 80.3892 88.4348C80.1263 90.9325 91.5628 95.139 93.0088 91.7212C96.2952 83.571 87.6192 76.2096 85.7788 76.8668C83.9385 77.5241 85.3845 82.125 85.3845 83.7025C85.253 85.4114 84.7272 87.909 84.7272 87.909Z" fill="#FEB49C"/>
<path d="M125.217 71.6086L131.132 74.3691C131.132 74.3691 134.55 69.2424 135.207 67.9279C135.865 66.6133 136.259 63.7213 136.259 62.4068C136.39 61.0922 137.442 58.3317 135.47 58.8575C133.367 59.3833 131.527 60.435 130.738 61.4866C128.24 64.6415 127.977 68.0593 127.977 68.0593L125.217 71.6086Z" fill="#F3A08C"/>
<path d="M104.182 170.594H126.266C126.792 170.594 127.186 171.12 127.186 171.646V201.354C127.186 202.012 126.792 202.406 126.266 202.406H104.182C103.656 202.406 103.262 201.88 103.262 201.354V171.646C103.262 171.12 103.656 170.594 104.182 170.594Z" fill="#F3F3F3"/>
<path d="M134.154 170.594H156.239C156.765 170.594 157.159 171.12 157.159 171.646V201.354C157.159 202.012 156.765 202.406 156.239 202.406H134.154C133.629 202.406 133.234 201.88 133.234 201.354V171.646C133.234 171.12 133.629 170.594 134.154 170.594Z" fill="#F3F3F3"/>
<path d="M165.307 170.594H187.391C187.917 170.594 188.311 171.12 188.311 171.646V201.354C188.311 202.012 187.917 202.406 187.391 202.406H165.307C164.781 202.406 164.387 201.88 164.387 201.354V171.646C164.387 171.12 164.781 170.594 165.307 170.594Z" fill="#EBF3F9"/>
<path d="M111.937 177.43C111.937 177.43 113.252 178.744 115.092 178.876C116.932 179.007 117.984 177.298 117.984 177.298C117.984 177.298 119.824 177.561 121.008 178.481C122.191 179.402 125.083 183.214 125.083 183.214L122.322 186.106L119.43 184.265L120.482 194.387H110.228L110.491 184.265L108.782 186.237L105.102 184.66C105.102 184.66 107.073 180.453 107.994 179.402C109.177 178.481 111.937 177.43 111.937 177.43Z" fill="#FCCA19"/>
<path d="M83.9366 95.7965L83.4107 91.0641C83.4107 91.0641 80.1244 89.7496 80.7816 88.0407C81.4389 86.3318 85.1196 88.1721 85.1196 88.1721C85.1196 88.1721 85.6454 86.3318 85.514 83.3083C85.2511 80.4163 84.3309 78.5759 85.514 77.6557C86.6971 76.6041 88.406 77.7872 86.5657 74.2379C84.7253 70.8201 80.7817 68.3225 79.9929 71.7403C79.2042 75.1581 76.838 74.7637 75.1291 76.2097C73.4202 77.6557 75.2605 83.9656 75.2605 83.9656C75.2605 83.9656 72.5 83.7027 71.9742 85.543C71.4483 87.5148 71.4483 92.773 76.5751 94.3505C81.5703 95.9279 83.9366 95.7965 83.9366 95.7965Z" fill="#2C2C2C"/>
<path d="M89.7228 93.2988C87.6195 93.2988 85.6477 92.773 85.6477 92.773C85.5162 92.773 85.3848 92.5101 85.3848 92.3786C85.3848 92.2472 85.6477 92.1157 85.7791 92.1157C85.7791 92.1157 88.2768 92.773 90.6429 92.6415C90.9059 92.6415 91.0373 92.773 91.0373 92.9044C91.0373 93.0359 90.9058 93.2988 90.7744 93.2988C90.38 93.2988 90.1171 93.2988 89.7228 93.2988Z" fill="#130514"/>
<path d="M82.6251 159.42C82.6251 159.42 81.442 159.42 81.442 164.81C81.3105 170.2 86.3058 192.021 86.4373 198.068C86.5687 204.115 81.442 230.274 81.9679 232.641C82.4937 235.138 83.2824 236.847 83.2824 236.847L82.2307 239.739L89.5922 241.711L91.0382 238.03C91.0382 238.03 92.0898 238.03 93.9302 236.058C95.7706 234.087 101.555 204.378 101.555 204.378L88.2777 158.237L82.6251 159.42Z" fill="#2C2C2C"/>
<path d="M108.653 155.871C108.653 155.871 117.46 190.181 119.3 197.937C121.141 205.824 124.559 229.223 124.427 233.035C124.296 236.847 122.061 239.871 122.061 239.871L123.376 243.288L115.094 245.129L113.779 241.054C113.779 241.054 110.362 241.185 109.31 238.162C108.258 235.138 101.554 204.378 101.554 204.378C101.554 204.378 89.1973 170.331 88.2771 167.176C87.357 164.153 86.1738 158.895 86.1738 158.895C86.1738 158.895 94.0612 154.951 97.7419 155.345C101.423 155.74 108.653 155.871 108.653 155.871Z" fill="#696969"/>
<path d="M126.398 88.4348L127.713 87.3831C135.469 81.0733 147.037 70.8199 147.3 68.4537C147.431 67.2706 147.037 66.219 146.117 65.4302C145.328 64.773 144.408 64.51 143.488 64.6415C141.384 65.0359 140.858 67.9279 140.858 67.9279L139.938 67.7964C139.938 67.665 140.595 64.2471 143.356 63.7213C144.671 63.4584 145.854 63.8528 146.905 64.773C147.957 65.6931 148.483 67.1391 148.351 68.5851C148.22 69.5053 146.905 71.2142 144.934 73.3175L164.257 83.571L126.398 88.4348ZM144.145 73.9748C139.544 78.5757 132.577 84.6226 129.553 87.1202L161.102 83.0451L144.145 73.9748Z" fill="#898989"/>
<path d="M137.439 76.7354L143.618 83.0452L151.111 75.158L164.519 81.3363C166.754 82.388 168.463 84.3598 169.251 86.726C171.486 93.8245 176.481 109.073 177.796 112.491C179.505 116.961 185.289 132.604 185.289 132.604L185.157 140.228L177.796 142.2L174.247 137.336L163.599 110.125L167.674 140.754L148.876 151.665L126.134 144.172L122.716 106.97L111.806 136.942L109.439 110.519L123.505 86.2001L137.439 76.7354Z" fill="#696969"/>
<path d="M175.298 137.204C175.167 137.204 175.035 137.073 175.035 136.942C175.035 136.81 175.035 136.547 175.298 136.547L184.105 133.787C184.237 133.787 184.5 133.787 184.5 134.05C184.5 134.181 184.5 134.444 184.237 134.444L175.298 137.204C175.298 137.073 175.298 137.204 175.298 137.204Z" fill="#130514"/>
<path d="M144.67 81.5993L149.402 86.3316L154.792 75.6838L150.454 74.5007L144.67 81.5993Z" fill="#FCCA19"/>
<path d="M143.223 82.2567L139.411 88.0407L132.838 78.5759L137.702 76.4727L143.223 82.2567Z" fill="#FCCA19"/>
<path d="M149.271 86.726C149.139 86.726 149.14 86.726 149.008 86.5945L144.407 81.7307C144.276 81.5992 144.276 81.4678 144.407 81.3363L150.191 74.1063C150.323 73.9749 150.454 73.9749 150.585 73.9749L154.924 75.1579C155.055 75.1579 155.055 75.2894 155.186 75.2894C155.186 75.4209 155.186 75.4209 155.186 75.5523L149.665 86.3316C149.534 86.7259 149.402 86.726 149.271 86.726ZM145.064 81.5992L149.14 85.9372L154.266 75.9467L150.454 74.895L145.064 81.5992Z" fill="#130514"/>
<path d="M139.545 88.435C139.414 88.435 139.282 88.435 139.282 88.3036L134.681 81.7309L132.578 78.9703C132.578 78.8389 132.447 78.8389 132.578 78.7074C132.578 78.576 132.709 78.5759 132.709 78.4445L137.047 75.9469C137.179 75.8154 137.31 75.9469 137.442 75.9469L143.489 82.1252C143.62 82.2567 143.62 82.3881 143.489 82.5196L139.808 88.3036C139.808 88.3036 139.676 88.435 139.545 88.435ZM133.367 78.8389L135.207 81.3365L139.545 87.5149L142.831 82.3881L137.179 76.6041L133.367 78.8389Z" fill="#130514"/>
<path d="M333.309 240.134C333.309 240.134 316.22 217.392 315.563 211.477C314.906 205.561 317.272 166.913 317.272 166.913L303.732 131.158V119.064C303.732 119.064 293.216 119.721 291.901 129.58C290.587 139.439 296.897 163.101 296.897 163.101C296.897 163.101 289.667 174.538 287.695 184.791C286.643 190.181 239.451 188.472 239.451 188.472C239.451 188.472 242.606 191.233 241.028 193.862C239.32 196.491 223.545 191.758 223.545 191.758C223.545 191.758 253.911 225.805 260.484 230.406C267.056 235.007 282.831 247.495 282.831 247.495L290.718 258.011L333.309 240.134Z" fill="#FEB49C"/>
<path d="M293.344 166.782L240.105 118.933C240.105 118.933 223.147 105.787 219.203 113.149C214.997 120.904 233.663 133.13 233.663 133.13L288.48 181.768L293.344 166.782Z" fill="#FEB49C"/>
<path opacity="0.63" d="M285.327 194.124H235.112C232.22 194.124 229.854 191.758 229.854 188.866V65.036C229.854 62.144 232.22 59.7778 235.112 59.7778H285.327C288.219 59.7778 290.585 62.144 290.585 65.036V188.866C290.585 191.89 288.219 194.124 285.327 194.124Z" fill="#2169F4"/>
<path d="M285.327 194.124H235.112C232.22 194.124 229.854 191.758 229.854 188.866V65.036C229.854 62.144 232.22 59.7778 235.112 59.7778H285.327C288.219 59.7778 290.585 62.144 290.585 65.036V188.866C290.585 191.89 288.219 194.124 285.327 194.124Z" fill="#F3F3F3"/>
<path d="M286.115 57.1487H234.322C230.51 57.1487 227.486 60.1721 227.486 63.9843V189.655C227.486 193.467 230.51 196.491 234.322 196.491H286.115C289.927 196.491 292.951 193.467 292.951 189.655V63.9843C292.951 60.1721 289.927 57.1487 286.115 57.1487ZM290.585 189.129C290.585 191.89 288.35 194.124 285.589 194.124H234.848C232.087 194.124 229.853 191.89 229.853 189.129V64.9045C229.853 62.144 232.087 59.9092 234.848 59.9092H285.589C288.35 59.9092 290.585 62.144 290.585 64.9045V189.129Z" fill="#2C2C2C"/>
<path d="M226.698 137.467C226.698 137.467 220.389 136.679 218.154 142.068C215.919 147.458 221.703 153.373 222.229 153.505C226.83 155.082 229.459 154.294 231.036 151.665C232.745 148.904 226.698 137.467 226.698 137.467Z" fill="#FEB49C"/>
<path d="M218.284 158.369C218.284 158.369 215.524 162.707 216.97 165.73C218.416 168.754 229.721 175.984 232.613 171.514C236.425 165.599 229.589 158.237 229.589 158.237L226.303 155.083C226.303 155.083 224.068 154.557 221.571 155.74C219.205 156.923 218.284 158.369 218.284 158.369Z" fill="#FEB49C"/>
<path d="M222.49 181.242C222.49 181.242 217.889 186.106 220.518 190.049C223.279 193.993 237.871 202.406 240.763 194.913C243.655 187.42 230.246 182.162 230.246 182.162L229.326 181.373C229.326 181.373 225.382 179.138 223.936 180.19C222.49 181.242 222.49 181.242 222.49 181.242Z" fill="#FEB49C"/>
<path d="M234.718 198.2C230.117 198.2 221.967 192.416 221.704 192.284C221.572 192.153 221.572 192.021 221.572 191.89C221.704 191.758 221.835 191.758 221.967 191.758C222.098 191.758 230.248 197.542 234.586 197.542C234.586 197.542 234.586 197.542 234.718 197.542C238.793 197.542 239.582 195.965 240.107 194.782C240.765 193.467 240.896 191.496 239.713 189.787C239.582 189.655 239.582 189.392 239.844 189.392C239.976 189.261 240.239 189.261 240.239 189.524C241.553 191.364 241.29 193.73 240.633 195.045C240.107 196.359 239.187 198.2 234.718 198.2Z" fill="#130514"/>
<path d="M285.722 209.373C285.59 209.373 285.59 209.373 285.59 209.373C284.802 209.242 272.313 207.27 264.295 208.059C264.163 208.059 263.9 207.927 263.9 207.796C263.9 207.664 264.032 207.401 264.163 207.401C272.445 206.481 285.459 208.585 285.59 208.716H285.722C285.722 208.716 286.905 208.453 287.694 201.617C288.088 198.068 288.351 196.491 288.482 195.833V195.702C288.614 195.308 288.745 195.308 288.877 195.308C289.271 195.308 289.14 195.702 289.14 195.965C289.14 196.096 289.14 196.096 289.008 196.096C288.877 196.754 288.745 198.2 288.351 201.486C287.825 205.955 287.036 208.453 285.985 208.979C285.985 209.373 285.853 209.373 285.722 209.373Z" fill="#130514"/>
<path d="M284.143 109.336H235.9C234.059 109.336 232.613 107.89 232.613 106.05V77.9184C232.613 76.0781 234.059 74.6321 235.9 74.6321H284.143C285.984 74.6321 287.43 76.0781 287.43 77.9184V106.05C287.43 107.89 285.984 109.336 284.143 109.336Z" fill="#BBBBBB"/>
<path d="M287.43 114.989H232.613V124.322H287.43V114.989Z" fill="#FCCA19"/>
<path d="M284.144 74.6321L266.661 109.336H249.309L266.792 74.6321H284.144Z" fill="#CFCFCF"/>
<path d="M258.51 74.6321L241.158 109.336H235.242C233.796 109.336 232.613 108.153 232.613 106.707V94.6132L243.524 74.7635H258.51V74.6321Z" fill="#CFCFCF"/>
<path d="M245.102 93.8245H239.844C239.187 93.8245 238.529 93.2987 238.529 92.5099V87.909C238.529 87.2518 239.055 86.5945 239.844 86.5945H245.102C245.759 86.5945 246.417 87.1203 246.417 87.909V92.5099C246.285 93.2987 245.759 93.8245 245.102 93.8245Z" fill="#FFE7AE"/>
<path d="M282.697 87.7777H282.565C282.434 87.6462 282.434 87.5148 282.565 87.3833C282.565 87.3833 282.697 87.2519 282.697 86.8575C282.697 86.5946 282.565 86.3317 282.565 86.3317C282.434 86.2002 282.565 86.0688 282.565 85.9373C282.697 85.8059 282.828 85.9373 282.96 85.9373C282.96 85.9373 283.223 86.3317 283.223 86.7261C283.223 87.2519 282.96 87.5148 282.96 87.5148C282.828 87.6462 282.828 87.7777 282.697 87.7777Z" fill="white"/>
<path d="M283.486 88.0404C283.223 87.9089 283.223 87.7775 283.223 87.646C283.223 87.646 283.486 87.2516 283.486 86.7258C283.486 86.3315 283.354 85.9371 283.223 85.8056C283.223 85.6742 283.223 85.5427 283.354 85.5427C283.486 85.5427 283.617 85.5427 283.617 85.6742C283.617 85.6742 283.88 86.3315 283.88 86.8573C283.88 87.5145 283.617 87.9089 283.617 87.9089C283.748 88.0404 283.617 88.0404 283.486 88.0404Z" fill="white"/>
<path d="M284.273 88.435C284.01 88.3036 284.01 88.1721 284.01 88.0407C284.01 88.0407 284.404 87.3834 284.404 86.7261C284.404 86.2003 284.01 85.4116 284.01 85.4116C284.01 85.2801 284.01 85.1487 284.141 85.1487C284.273 85.1487 284.404 85.1487 284.404 85.2801C284.404 85.2801 284.799 86.2003 284.799 86.8576C284.799 87.6463 284.404 88.3036 284.404 88.3036C284.536 88.435 284.404 88.435 284.273 88.435Z" fill="white"/>
<path d="M285.193 88.8291C285.062 88.8291 285.062 88.8291 285.193 88.8291C284.93 88.6976 284.93 88.5662 284.93 88.4347C284.93 88.4347 285.456 87.646 285.325 86.7258C285.325 85.9371 284.799 84.8855 284.799 84.8855C284.799 84.754 284.799 84.6226 284.93 84.6226C285.062 84.6226 285.193 84.6226 285.193 84.754C285.193 84.754 285.719 85.9371 285.719 86.7258C285.719 87.646 285.193 88.5662 285.193 88.6976C285.325 88.8291 285.193 88.8291 285.193 88.8291Z" fill="white"/>
<path d="M277.572 103.947C277.572 101.843 279.281 100.135 281.384 100.135C283.488 100.135 285.197 101.843 285.197 103.947C285.197 106.05 283.488 107.759 281.384 107.759C279.281 107.627 277.572 105.919 277.572 103.947Z" fill="#696969"/>
<path d="M266.398 105.655H239.449C238.924 105.655 238.529 105.261 238.529 104.735V103.947C238.529 103.421 238.924 103.026 239.449 103.026H266.398C266.923 103.026 267.318 103.421 267.318 103.947V104.604C267.318 105.13 266.923 105.655 266.398 105.655Z" fill="white"/>
<path d="M257.985 81.8625H239.318C238.924 81.8625 238.529 81.4681 238.529 81.0738V80.0221C238.529 79.6278 238.924 79.2334 239.318 79.2334H257.985C258.379 79.2334 258.773 79.6278 258.773 80.0221V81.0738C258.773 81.5996 258.379 81.8625 257.985 81.8625Z" fill="white"/>
<path d="M234.98 121.167L234.717 120.904C235.111 120.51 235.243 120.115 235.243 119.589C235.243 119.064 235.111 118.669 234.717 118.275L234.98 118.012C235.374 118.406 235.637 118.932 235.637 119.589C235.637 120.247 235.374 120.773 234.98 121.167Z" fill="#696969"/>
<path d="M236.295 122.35L236.032 122.087C236.689 121.43 236.952 120.51 236.952 119.721C236.952 118.801 236.558 117.881 235.9 117.223L236.163 116.96C236.821 117.749 237.215 118.669 237.215 119.721C237.346 120.641 236.952 121.693 236.295 122.35Z" fill="#696969"/>
<path d="M237.607 123.533L237.344 123.27C238.264 122.35 238.79 121.036 238.79 119.721C238.79 118.406 238.264 117.092 237.344 116.04L237.607 115.777C238.658 116.829 239.184 118.275 239.184 119.721C239.053 121.167 238.527 122.482 237.607 123.533Z" fill="#696969"/>
<path d="M149.532 148.772C149.401 148.772 149.27 148.641 149.27 148.509L143.223 83.5709C143.223 83.4394 143.354 83.1765 143.486 83.1765C143.748 83.1765 143.88 83.308 143.88 83.4394L149.795 148.247C149.795 148.509 149.664 148.772 149.532 148.772Z" fill="#130514"/>
<path d="M83.5443 96.9797C83.5443 96.9797 79.0749 97.8998 78.0233 100.792C76.9716 103.684 76.5773 123.271 76.4458 130.501C76.1829 137.731 74.9998 152.585 77.7604 154.031C80.3895 155.477 81.1781 156.397 81.1781 156.397L81.0467 160.078C81.0467 160.078 91.4316 157.186 96.5583 156.791C101.685 156.266 110.098 155.871 110.098 155.871L109.967 152.848C109.967 152.848 112.464 151.928 112.464 144.829C112.859 139.834 110.493 113.937 110.493 113.937C110.493 113.937 125.873 109.205 127.976 106.181C130.079 103.027 139.15 75.5526 139.15 75.5526L132.182 73.3178L131.525 74.5009L125.478 70.9517C125.478 70.9517 117.197 86.7262 112.99 87.6464C108.915 88.4351 97.2156 91.8529 94.8495 92.6417C92.4833 93.4304 91.6945 94.3506 91.6945 94.3506L93.7978 96.5853C93.7978 96.5853 94.455 98.9515 90.7743 99.2144C87.7509 99.3458 83.5443 96.9797 83.5443 96.9797Z" fill="#FCCA19"/>
<path d="M83.2805 102.369C83.149 102.369 83.0176 102.238 83.0176 102.106C83.0176 101.975 83.149 101.712 83.2805 101.712C83.5434 101.712 107.862 100.266 114.435 96.1908C121.008 92.1157 130.473 75.0266 130.604 74.8951C130.736 74.7637 130.867 74.6322 130.999 74.7637C131.13 74.8951 131.261 75.0266 131.13 75.158C130.736 75.9468 121.534 92.51 114.83 96.7166C107.994 100.923 84.3321 102.369 83.2805 102.369Z" fill="#130514"/>
<path d="M95.3756 119.327C91.6949 119.327 87.2255 118.144 85.2537 115.12C85.1222 114.989 85.2536 114.726 85.3851 114.726C85.5166 114.594 85.7794 114.726 85.7794 114.857C88.1456 118.407 94.4555 119.195 97.8733 118.538C101.423 117.749 109.178 116.04 109.178 116.04L109.31 116.698C109.31 116.698 101.554 118.407 98.0047 119.195C97.216 119.327 96.2958 119.327 95.3756 119.327Z" fill="#130514"/>
<path d="M104.709 99.3455H104.577L99.1878 96.1906C99.0564 96.0592 98.925 95.9277 99.0564 95.7963C99.1879 95.6648 99.3193 95.5333 99.4508 95.6648L104.84 98.8197C104.972 98.9512 105.103 99.0826 104.972 99.2141C104.84 99.2141 104.84 99.3455 104.709 99.3455Z" fill="#130514"/>
<path d="M83.5439 156.923C83.4124 156.923 83.281 156.792 83.281 156.66C83.1496 156.529 83.281 156.266 83.4124 156.266C83.6754 156.134 90.3795 153.374 95.3748 153.505C100.37 153.637 108.652 152.454 108.652 152.454C108.783 152.454 109.046 152.585 109.046 152.717C109.046 152.848 108.915 153.111 108.783 153.111C108.652 153.111 100.37 154.294 95.3748 154.163C90.3795 154.031 83.6753 156.792 83.5439 156.923Z" fill="#130514"/>
<path d="M89.8559 99.6085C87.0953 99.6085 83.9404 97.7682 83.8089 97.6367C83.6775 97.5052 83.546 97.3738 83.6775 97.2423C83.809 97.1109 83.9404 96.9794 84.0719 97.1109C84.0719 97.1109 88.1469 99.6085 91.0389 98.8198C92.4849 98.4254 92.8793 97.8996 93.1422 97.5053C93.2737 97.1109 93.1422 96.848 93.1422 96.848C93.0108 96.7165 93.1422 96.4536 93.2737 96.4536C93.4051 96.3222 93.668 96.4536 93.668 96.5851C93.668 96.5851 93.9309 97.1109 93.668 97.7682C93.4051 98.5569 92.485 99.0827 91.1704 99.4771C90.9075 99.6085 90.3817 99.6085 89.8559 99.6085Z" fill="#130514"/>
<path d="M141.645 176.378C141.645 176.378 142.433 179.927 144.537 180.059C146.64 180.19 147.56 176.378 147.56 176.378C147.56 176.378 148.349 175.852 149.663 176.904C147.692 181.505 149.926 184.528 149.926 184.528L150.715 196.096H139.016L139.279 184.528C139.279 184.528 141.382 183.214 139.804 177.035C140.725 176.378 141.645 176.378 141.645 176.378Z" fill="#BBBBBB"/>
<path d="M172.934 177.824H180.295L181.347 182.162L183.187 197.148L179.769 197.411L176.746 184.923L174.905 197.411L171.225 196.753L172.013 182.425L172.934 177.824Z" fill="#4060F0"/>
<path d="M238.657 134.575H281.774C283.352 134.575 284.535 136.021 284.535 137.73V178.876C284.535 180.585 283.352 182.031 281.774 182.031H238.657C237.08 182.031 235.896 180.585 235.896 178.876V137.73C235.896 136.021 237.08 134.575 238.657 134.575Z" fill="white"/>
<path d="M281.775 182.294H238.658C236.949 182.294 235.635 180.716 235.635 178.744V137.599C235.635 135.627 237.081 134.05 238.658 134.05H281.775C283.484 134.05 284.799 135.627 284.799 137.599V178.744C284.799 180.716 283.484 182.294 281.775 182.294ZM238.658 134.839C237.344 134.839 236.292 136.153 236.292 137.731V178.876C236.292 180.453 237.344 181.768 238.658 181.768H281.775C283.09 181.768 284.142 180.453 284.142 178.876V137.731C284.142 136.153 283.09 134.839 281.775 134.839H238.658Z" fill="#2C2C2C"/>
<path d="M241.025 158.237C241.025 147.59 249.57 138.914 260.218 138.914C270.734 138.914 279.41 147.59 279.41 158.237C279.41 168.885 270.866 177.561 260.218 177.561C249.57 177.561 241.025 168.885 241.025 158.237Z" fill="#FCCA19"/>
<path d="M259.037 169.805H258.906C258.38 169.805 257.986 169.411 257.854 169.016L249.835 153.373C249.441 152.716 249.704 151.796 250.493 151.533C251.15 151.138 252.07 151.401 252.333 152.19L259.432 165.993L277.835 144.303C278.361 143.777 279.15 143.646 279.807 144.171C280.333 144.697 280.464 145.617 279.939 146.143L260.22 169.411C259.826 169.674 259.432 169.805 259.037 169.805Z" fill="#2C2C2C"/>
<path d="M131.789 73.3177L138.756 75.421L140.728 70.2943C140.728 70.2943 145.066 67.0079 145.197 64.7732C145.329 62.6699 144.409 61.8812 144.277 61.0924C144.146 60.3037 144.409 58.069 143.489 57.9375C142.568 57.8061 138.362 61.7497 138.362 61.7497C138.362 61.7497 139.019 56.0972 138.23 55.7028C137.442 55.177 135.601 60.6981 135.601 60.6981C135.601 60.6981 135.601 65.299 135.207 66.4821C135.075 67.7966 131.789 73.3177 131.789 73.3177Z" fill="#FEB49C"/>
<path d="M221.442 65.167L222.756 66.4815C221.573 67.6646 221.047 69.2421 221.047 70.8195C221.047 72.397 221.705 73.9744 222.756 75.1575L221.442 76.4721C219.996 75.0261 219.207 73.0543 219.207 70.951C219.207 68.7163 219.996 66.7444 221.442 65.167Z" fill="#696969"/>
<path d="M216.84 61.092L218.154 62.2751C216.051 64.5099 214.868 67.5333 214.868 70.6882C214.868 73.8431 216.051 76.8666 218.286 79.2328L216.971 80.5473C214.473 77.9182 213.027 74.369 213.027 70.8197C213.027 67.139 214.342 63.7211 216.84 61.092Z" fill="#696969"/>
<path d="M212.239 57.0171L213.554 58.2002C210.399 61.618 208.69 66.0875 208.69 70.6884C208.69 75.5522 210.53 80.0216 213.817 83.5709L212.502 84.8855C208.821 81.0733 206.85 76.078 206.85 70.8198C206.85 65.6931 208.821 60.8293 212.239 57.0171Z" fill="#696969"/>
<path d="M164.652 167.176H209.083C210.135 167.176 211.055 168.228 211.055 169.411V229.223C211.055 230.406 210.135 231.457 209.083 231.457H164.652C163.6 231.457 162.68 230.406 162.68 229.223V169.411C162.68 168.228 163.6 167.176 164.652 167.176Z" fill="white"/>
<path d="M209.084 231.852H164.653C163.338 231.852 162.418 230.669 162.418 229.223V169.411C162.418 167.965 163.47 166.782 164.653 166.782H209.084C210.399 166.782 211.319 167.965 211.319 169.411V229.223C211.319 230.669 210.399 231.852 209.084 231.852ZM164.653 167.439C163.733 167.439 163.075 168.359 163.075 169.411V229.223C163.075 230.274 163.733 231.194 164.653 231.194H209.084C210.005 231.194 210.662 230.274 210.662 229.223V169.411C210.662 168.359 210.005 167.439 209.084 167.439H164.653Z" fill="#2C2C2C"/>
<path d="M180.558 177.956C180.558 177.956 183.187 180.453 186.867 180.716C190.548 180.979 192.388 177.693 192.388 177.693C192.388 177.693 196.069 178.218 198.172 180.059C200.407 181.768 206.191 189.392 206.191 189.392L200.933 195.045L195.412 191.495L197.515 211.214H177.534L177.928 191.495L174.774 195.439L167.412 192.416C167.412 192.416 171.224 184.134 173.065 182.031C175.036 180.059 180.558 177.956 180.558 177.956Z" fill="#FCCA19"/>
<path d="M41.7434 204.641C41.6119 204.641 41.4805 204.509 41.4805 204.247C41.4805 203.721 41.8749 189.787 48.579 188.998C49.7621 188.866 50.9452 189.261 51.8654 190.049C55.6776 193.336 55.9405 203.326 56.072 203.721C56.072 203.852 55.9405 204.115 55.809 204.115C55.6776 204.115 55.5462 203.984 55.4147 203.852C55.4147 203.721 55.1518 193.73 51.4711 190.575C50.6823 189.918 49.7621 189.524 48.7105 189.655C42.6636 190.312 42.2692 204.115 42.2692 204.247C42.1378 204.378 41.8748 204.641 41.7434 204.641Z" fill="#2C2C2C"/>
<path d="M37.0081 198.725L36.0879 251.176L71.975 246.575L70.9234 198.988L37.0081 198.725Z" fill="#FCCA19"/>
<path d="M30.5683 198.725H34.1176L32.9344 245.392L28.8594 246.706L30.5683 198.725Z" fill="#FCCA19"/>
<path d="M33.853 198.857H37.1393L36.2191 250.781L32.6699 245.26L33.853 198.857Z" fill="#C88E06"/>
<path d="M47.5266 203.589C47.3951 203.589 47.2637 203.458 47.2637 203.195C47.2637 202.669 47.6581 188.735 54.3623 187.946C55.5453 187.815 56.7284 188.209 57.6486 188.998C61.4608 192.284 61.7236 202.275 61.8551 202.669C61.8551 202.8 61.7237 203.063 61.5923 203.063C61.4608 203.063 61.3293 202.932 61.1978 202.8C61.1978 202.669 60.9349 192.678 57.2542 189.524C56.4655 188.866 55.5453 188.472 54.4937 188.603C48.4468 189.261 48.0524 203.063 48.0524 203.195C47.7895 203.458 47.6581 203.589 47.5266 203.589Z" fill="#2C2C2C"/>
<path d="M31.0918 73.318C31.0918 64.7735 38.0589 57.8064 46.6034 57.8064C55.148 57.8064 62.115 64.7735 62.115 73.318C62.115 81.8626 55.148 88.8297 46.6034 88.8297C38.0589 88.6982 31.0918 81.8626 31.0918 73.318Z" fill="white"/>
<path d="M46.736 89.0925C37.9286 89.0925 30.8301 81.994 30.8301 73.318C30.8301 64.642 37.9286 57.5435 46.736 57.5435C55.5435 57.5435 62.6421 64.642 62.6421 73.318C62.5106 81.994 55.412 89.0925 46.736 89.0925ZM46.736 58.0693C38.323 58.0693 31.4874 64.9049 31.4874 73.1865C31.4874 81.5996 38.323 88.3038 46.736 88.3038C55.1491 88.3038 61.9848 81.4682 61.9848 73.1865C61.8534 64.9049 55.1491 58.0693 46.736 58.0693Z" fill="#2C2C2C"/>
<path d="M46.7377 82.1255C46.6063 82.1255 46.4749 82.1255 46.4749 81.994C46.212 81.7311 40.8223 74.2382 40.8223 71.0833C40.8223 67.7969 43.4514 65.0364 46.6063 65.0364C49.7612 65.0364 52.3903 67.7969 52.3903 71.0833C52.3903 74.3697 47.1321 81.7311 46.8692 81.994C47.0007 82.1255 46.8692 82.1255 46.7377 82.1255ZM46.7377 65.6936C43.8457 65.6936 41.611 68.0598 41.611 71.0833C41.611 73.7124 45.6861 79.7593 46.8692 81.3367C47.9209 79.7593 51.9959 73.7124 51.9959 71.0833C51.8644 68.0598 49.4983 65.6936 46.7377 65.6936Z" fill="#2C2C2C"/>
<path d="M46.7348 74.1066C44.7629 74.1066 43.1855 72.5292 43.1855 70.6888C43.1855 68.8484 44.7629 67.271 46.7348 67.271C48.7066 67.271 50.284 68.8484 50.284 70.6888C50.284 72.5292 48.7066 74.1066 46.7348 74.1066ZM46.7348 67.9283C45.1573 67.9283 43.8428 69.1114 43.8428 70.6888C43.8428 72.2663 45.1573 73.4494 46.7348 73.4494C48.3122 73.4494 49.6268 72.2663 49.6268 70.6888C49.6268 69.2428 48.3122 67.9283 46.7348 67.9283Z" fill="#2C2C2C"/>
<path d="M115.224 35.3274C118.2 35.3274 120.613 32.9143 120.613 29.9377C120.613 26.9611 118.2 24.5481 115.224 24.5481C112.247 24.5481 109.834 26.9611 109.834 29.9377C109.834 32.9143 112.247 35.3274 115.224 35.3274Z" fill="#FCCA19"/>
<path d="M197.778 33.75C197.778 35.7218 196.201 37.2992 194.229 37.2992C192.257 37.2992 190.68 35.7218 190.68 33.75C190.68 31.7781 192.257 30.2007 194.229 30.2007C196.201 30.2007 197.778 31.7781 197.778 33.75Z" fill="#FCCA19"/>
<path d="M238.002 35.3273C238.002 36.3789 237.082 37.2991 236.03 37.2991C234.979 37.2991 234.059 36.3789 234.059 35.3273C234.059 34.2757 234.979 33.3555 236.03 33.3555C237.214 33.3555 238.002 34.2757 238.002 35.3273Z" fill="#BBBBBB"/>
<path d="M31.3562 184.003C27.2811 184.003 23.8633 180.716 23.8633 176.51C23.8633 172.435 27.1497 169.017 31.3562 169.017C35.4313 169.017 38.8491 172.303 38.8491 176.51C38.8491 180.716 35.4313 184.003 31.3562 184.003ZM31.3562 170.463C27.9384 170.463 25.1778 173.223 25.1778 176.641C25.1778 180.059 27.9384 182.82 31.3562 182.82C34.774 182.82 37.5345 180.059 37.5345 176.641C37.5345 173.223 34.774 170.463 31.3562 170.463Z" fill="#2C2C2C"/>
<path d="M312.538 113.017C308.463 113.017 305.045 109.73 305.045 105.524C305.045 101.449 308.331 98.031 312.538 98.031C316.613 98.031 320.031 101.317 320.031 105.524C320.031 109.73 316.613 113.017 312.538 113.017ZM312.538 99.477C309.12 99.477 306.359 102.238 306.359 105.655C306.359 109.073 309.12 111.834 312.538 111.834C315.956 111.834 318.716 109.073 318.716 105.655C318.716 102.238 315.956 99.477 312.538 99.477Z" fill="#2C2C2C"/>
<path d="M140.069 25.8626C137.177 25.8626 134.811 23.4964 134.811 20.6044C134.811 17.7124 137.177 15.3462 140.069 15.3462C142.961 15.3462 145.327 17.7124 145.327 20.6044C145.327 23.4964 142.961 25.8626 140.069 25.8626ZM140.069 16.6607C137.834 16.6607 136.125 18.3696 136.125 20.6044C136.125 22.8391 137.834 24.548 140.069 24.548C142.172 24.548 144.012 22.8391 144.012 20.6044C144.012 18.3696 142.172 16.6607 140.069 16.6607Z" fill="#2C2C2C"/>
<path d="M303.337 98.6884L302.548 98.1626L302.811 97.7682C302.811 97.7682 303.205 97.2424 303.863 96.3222L304.125 95.9279L304.914 96.4537L304.651 96.848C303.994 97.8997 303.468 98.4255 303.468 98.4255L303.337 98.6884ZM306.492 93.956L305.703 93.4302L305.966 93.0359C306.229 92.51 306.623 91.9842 306.886 91.4584L307.149 91.064L307.938 91.5899L307.675 91.9842C307.412 92.51 307.017 93.0359 306.755 93.5617L306.492 93.956ZM309.252 89.0922L308.463 88.6979L308.726 88.3035C308.989 87.7777 309.252 87.2519 309.515 86.5946L309.646 86.2002L310.435 86.5946L310.304 86.989C310.041 87.5148 309.778 88.172 309.515 88.6979L309.252 89.0922ZM311.618 83.9655L310.698 83.5711L310.83 83.1768C311.093 82.6509 311.224 81.9937 311.487 81.4679L311.618 81.0735L312.538 81.3364L312.407 81.7308C312.144 82.388 312.013 82.9139 311.75 83.4397L311.618 83.9655ZM313.459 78.5759L312.538 78.313L312.67 77.9186C312.801 77.3928 312.933 76.7355 313.064 76.0782L313.196 75.6839L314.116 75.9468L313.985 76.3411C313.853 76.9984 313.722 77.5242 313.459 78.1815V78.5759ZM314.642 73.0548L313.722 72.9233L313.853 72.3975C313.984 71.7402 313.985 71.2144 314.116 70.5571V70.0313L315.036 70.1628V70.6886C314.905 71.3459 314.905 72.0031 314.773 72.5289L314.642 73.0548ZM315.168 67.4022H314.247V66.2191C314.247 65.8248 314.247 65.4304 314.247 65.036V64.5102H315.168V65.036C315.168 65.4304 315.168 65.8248 315.168 66.2191C315.168 66.482 315.168 67.4022 315.168 67.4022ZM313.985 61.8811V61.3553C313.853 60.698 313.853 60.1722 313.722 59.5149L313.59 59.1206L314.51 58.9891L314.642 59.3835C314.773 60.0408 314.905 60.5666 314.905 61.2239V61.7497L313.985 61.8811ZM312.933 56.4915L312.801 56.0971C312.67 55.5713 312.407 54.914 312.276 54.3882L312.144 53.9939L313.064 53.7309L313.196 54.1253C313.459 54.7826 313.59 55.3084 313.722 55.9657L313.853 56.36L312.933 56.4915ZM310.961 51.3648L310.698 50.9704C310.435 50.4446 310.172 49.9188 309.909 49.3929L309.646 48.9986L310.435 48.6042L310.698 48.9986C310.961 49.5244 311.355 50.1817 311.618 50.7075L311.881 51.1019L310.961 51.3648ZM308.332 46.5009L308.069 46.1066C307.675 45.5808 307.412 45.0549 307.017 44.6606L306.755 44.2662L307.543 43.7404L307.806 44.1348C308.201 44.6606 308.595 45.1864 308.858 45.7122L309.121 46.1066L308.332 46.5009ZM304.914 42.1629L304.651 41.7686C304.257 41.3742 303.862 40.8484 303.337 40.454L303.074 40.0597L303.731 39.4024L303.994 39.7968C304.388 40.1911 304.914 40.7169 305.308 41.1113L305.571 41.5057L304.914 42.1629ZM301.102 38.2193L300.708 37.9564C300.313 37.562 299.787 37.1677 299.262 36.7733L298.867 36.5104L299.525 35.8531L299.919 36.116C300.445 36.5104 300.839 36.9048 301.365 37.2991L301.628 37.562L301.102 38.2193ZM251.806 35.4588L251.412 34.67L251.806 34.4071C252.332 34.1442 252.858 33.8813 253.515 33.6184L253.91 33.4869L254.304 34.2757L253.91 34.4071C253.253 34.67 252.727 34.9329 252.201 35.1959L251.806 35.4588ZM296.764 34.8015L296.37 34.5386C295.844 34.1442 295.318 33.8813 294.792 33.6184L294.398 33.3555L294.924 32.5668L295.318 32.8297C295.844 33.0926 296.37 33.4869 296.895 33.8813L297.29 34.1442L296.764 34.8015ZM256.933 33.224L256.539 32.3038L256.933 32.1724C257.459 31.9095 258.116 31.778 258.642 31.5151L259.036 31.3837L259.562 32.3038C259.562 32.3038 257.985 32.8297 257.328 33.0926L256.933 33.224ZM291.9 32.0409L291.506 31.9095C290.98 31.6466 290.323 31.3837 289.797 31.2522L289.403 31.1208L289.665 30.2006L290.06 30.332C290.586 30.5949 291.243 30.7264 291.769 30.9893L292.163 31.1208L291.9 32.0409ZM262.191 31.3837L261.928 30.4635L262.323 30.332C262.849 30.2006 263.506 29.9377 264.163 29.8062L264.558 29.6748L264.82 30.5949L264.426 30.7264C263.769 30.8578 263.243 30.9893 262.586 31.2522L262.191 31.3837ZM286.773 30.332L286.379 30.2006C285.722 30.0691 285.196 29.9377 284.539 29.8062L284.144 29.6748L284.276 28.7546L284.67 28.886C285.327 29.0175 285.853 29.1489 286.51 29.2804L286.905 29.4118L286.773 30.332ZM267.581 30.0691L267.45 29.1489L267.844 29.0175C268.501 28.886 269.027 28.7546 269.684 28.7546L270.21 28.6231L270.342 29.5433L269.947 29.6748C269.29 29.8062 268.764 29.9377 268.107 29.9377L267.581 30.0691ZM281.384 29.2804H280.858C280.201 29.2804 279.675 29.1489 279.018 29.1489H278.492V28.2288H279.018C279.675 28.2288 280.332 28.3602 280.858 28.3602H281.384V29.2804ZM273.102 29.2804L272.971 28.3602H273.496C274.154 28.3602 274.811 28.2288 275.337 28.2288H275.863V29.1489H275.337C274.68 29.1489 274.154 29.1489 273.496 29.2804H273.102Z" fill="#2C2C2C"/>
<path d="M230.642 217.918V216.998H231.168C231.825 216.998 232.351 216.998 233.008 216.866H233.534L233.666 217.786H233.14C232.483 217.786 231.825 217.918 231.299 217.918H230.642ZM227.75 217.786H227.224C226.567 217.786 225.91 217.655 225.384 217.523L224.99 217.392L225.121 216.472L225.647 216.603C226.304 216.735 226.83 216.735 227.487 216.866H228.013L227.75 217.786ZM236.295 217.26L236.032 216.34L236.426 216.209C236.952 216.077 237.609 215.946 238.135 215.683L238.529 215.552L238.792 216.472L238.398 216.603C237.741 216.735 237.215 216.998 236.558 217.129L236.295 217.26ZM222.229 216.866L221.835 216.735C221.177 216.603 220.652 216.34 219.994 216.209L219.6 216.077L219.863 215.157L220.257 215.289C220.783 215.42 221.44 215.683 222.098 215.814L222.492 215.946L222.229 216.866ZM241.684 215.289L241.29 214.5L241.684 214.237C242.21 213.974 242.736 213.58 243.262 213.317L243.656 213.054L244.182 213.843L243.788 214.106C243.262 214.5 242.736 214.763 242.21 215.026L241.684 215.289ZM216.839 215.157L216.445 215.026C215.393 214.631 214.736 214.237 214.736 214.237L214.342 213.974L214.736 213.185L215.131 213.448C215.131 213.448 215.788 213.711 216.839 214.237L217.234 214.368L216.839 215.157ZM246.285 212.134L245.628 211.476L247.731 209.636L248.389 210.293L246.285 212.134ZM250.492 208.322L249.835 207.664L250.097 207.27C250.623 206.744 251.018 206.35 251.412 205.955L251.675 205.561L252.332 206.218L252.069 206.613C251.675 207.007 251.281 207.533 250.755 207.927L250.492 208.322ZM254.173 203.984L253.384 203.458L253.647 203.063C254.041 202.538 254.304 202.012 254.435 201.486L254.567 201.092L255.487 201.354L255.356 201.749C255.224 202.275 254.961 202.932 254.567 203.589L254.173 203.984Z" fill="#2C2C2C"/>
<path d="M37.7994 57.28V56.7542C37.7994 56.7542 37.668 56.2284 37.668 55.3082C37.668 55.1767 37.668 54.388 37.668 54.388H38.5882C38.5882 54.388 38.5882 55.1767 38.5882 55.3082C38.5882 56.0969 38.5882 56.6227 38.5882 56.6227V57.1486L37.7994 57.28ZM38.851 51.7589L37.9309 51.6275L38.0623 51.2331C38.1938 50.7073 38.3252 50.05 38.4567 49.3927L38.5882 48.9984L39.5083 49.2613L39.3769 49.6557C39.2454 50.3129 39.114 50.8387 38.9825 51.496L38.851 51.7589ZM40.4285 46.5007L39.6398 46.1064L39.7712 45.712C40.0341 45.1862 40.2971 44.5289 40.56 44.0031L40.8228 43.6087L41.6116 44.0031L41.3487 44.3975C41.0858 44.9233 40.8229 45.4491 40.56 45.9749L40.4285 46.5007ZM43.1891 41.7684L42.4003 41.2426L42.6632 40.8482C43.0576 40.3224 43.452 39.928 43.8464 39.4022L44.1092 39.0078L44.7665 39.6651L44.5036 40.0595C44.1093 40.5853 43.7149 40.9797 43.3205 41.5055L43.1891 41.7684ZM46.8698 37.6933L46.2125 37.036L46.6069 36.7731C47.1327 36.3787 47.527 35.9844 48.0528 35.59L48.4473 35.3271L48.973 36.1158L48.5787 36.3787C48.0529 36.7731 47.6585 37.1675 47.1327 37.5618L46.8698 37.6933ZM79.6019 35.9844L79.2076 35.7215C79.2076 35.7215 78.6818 35.3271 77.7616 34.6698L77.3673 34.4069L77.893 33.6182L78.2874 33.8811C79.339 34.5384 79.8649 34.9327 79.8649 34.9327L80.2592 35.1957L79.6019 35.9844ZM51.3392 34.4069L50.8134 33.6182C50.8134 33.6182 51.7336 33.0924 51.9965 32.9609C52.2594 32.8295 52.6538 32.5666 52.9167 32.4351L53.311 32.1722L53.7054 32.9609L53.311 33.2238C53.0481 33.3553 52.6538 33.4867 52.3909 33.7497C52.128 33.8811 51.3392 34.4069 51.3392 34.4069ZM74.8696 33.2238L74.4753 33.0924C73.9494 32.8295 73.4236 32.5666 72.7664 32.4351L72.3719 32.3037L72.6349 31.3835L73.0292 31.5149C73.6865 31.7778 74.2124 32.0407 74.7382 32.1722L75.1325 32.3037L74.8696 33.2238ZM56.203 32.0407L55.9401 31.1206L56.3345 30.9891C56.9918 30.7262 57.5176 30.5947 58.1749 30.4633L58.5692 30.3318L58.8321 31.252L58.4378 31.3835C57.912 31.5149 57.2547 31.6464 56.7289 31.9093L56.203 32.0407ZM69.7428 31.3835L69.3485 31.252C68.8227 31.1206 68.1654 30.9891 67.5082 30.8577L67.1137 30.7262L67.2453 29.806L67.771 29.9375C68.4283 30.0689 69.0856 30.2004 69.6114 30.3318L70.0058 30.4633L69.7428 31.3835ZM61.5927 30.7262L61.4612 29.806H61.9871C62.6443 29.806 63.3016 29.6746 63.8274 29.6746H64.3532V30.5947H63.8274C63.1701 30.5947 62.6443 30.5947 61.9871 30.7262H61.5927Z" fill="#2C2C2C"/>
</g>
</svg>
