<svg width="46" height="30" viewBox="0 0 46 30" fill="none" xmlns="http://www.w3.org/2000/svg">
<path d="M0.854226 30C0.284741 27.8723 -7.63952e-07 25.9726 -6.17805e-07 24.3009C-4.21835e-07 22.0592 0.550502 20.3305 1.65151 19.1147C2.75251 17.8609 4.34707 17.234 6.43518 17.234L6.43518 19.9126C5.44807 19.9126 4.72672 20.1975 4.27113 20.7674C3.85351 21.2994 3.6447 22.1352 3.6447 23.275L3.6447 24.4718L6.71992 24.4718L6.71992 30L0.854226 30ZM9.45344 30C8.92193 28.0243 8.65617 26.1246 8.65617 24.3009C8.65617 22.0592 9.18769 20.3305 10.2507 19.1147C11.3517 17.8609 12.9463 17.234 15.0344 17.234L15.0344 19.9126C13.1741 19.9126 12.2439 21.0334 12.2439 23.275L12.2439 24.4718L15.3191 24.4718L15.3191 30L9.45344 30Z" fill="#D9D9D9"/>
<path d="M42.5481 3.19145C43.5447 6.91485 44.043 10.2393 44.043 13.1648C44.043 17.0877 43.0796 20.113 41.1528 22.2406C39.2261 24.4348 36.4356 25.5319 32.7814 25.5319V20.8444C34.5088 20.8444 35.7712 20.3457 36.5685 19.3484C37.2993 18.4175 37.6647 16.9547 37.6647 14.9601V12.8656H32.2831V3.19145H42.5481ZM27.4994 3.19145C28.4296 6.64889 28.8947 9.97336 28.8947 13.1648C28.8947 17.0877 27.9645 20.113 26.1042 22.2406C24.1774 24.4348 21.387 25.5319 17.7328 25.5319V20.8444C20.9883 20.8444 22.6161 18.8829 22.6161 14.9601V12.8656H17.2345V3.19145H27.4994Z" fill="#FCCA19"/>
<path fill-rule="evenodd" clip-rule="evenodd" d="M43.0669 19.0492C44.9937 16.9216 45.957 13.8963 45.957 9.97344C45.957 7.04791 45.4587 3.72344 44.4621 4.19617e-05H34.1972V9.67424H39.5788V11.7687C39.5788 13.7633 39.2134 15.2261 38.4825 16.1569C37.6853 17.1543 36.4229 17.653 34.6955 17.653V22.3405C35.1334 22.3405 35.5589 22.3247 35.9721 22.2932C39.0061 22.0617 41.3711 20.9804 43.0669 19.0492ZM35.9721 21.0128C38.6955 20.7868 40.6943 19.8164 42.1077 18.2069L42.1141 18.1996L42.1206 18.1923C43.7674 16.3738 44.6804 13.6968 44.6804 9.97344C44.6804 7.43163 44.2847 4.53578 43.4735 1.27664H35.4738V8.39764H40.8554V11.7687C40.8554 13.8708 40.4793 15.681 39.4866 16.9453L39.4832 16.9497L39.4797 16.9541C38.6116 18.0399 37.3946 18.6305 35.9721 18.8403V21.0128ZM24.5302 9.67424V11.7687C24.5302 15.6915 22.9024 17.653 19.6468 17.653V22.3405C20.0848 22.3405 20.5103 22.3247 20.9234 22.2932C23.9575 22.0617 26.3224 20.9804 28.0183 19.0492C29.8786 16.9216 30.8087 13.8963 30.8087 9.97344C30.8087 6.78195 30.3437 3.45749 29.4135 4.19617e-05H19.1485V9.67424H24.5302ZM20.4251 8.39764H25.8068V11.7687C25.8068 13.8749 25.3747 15.6922 24.2917 16.9971C23.4318 18.0333 22.272 18.617 20.9234 18.8326V21.0128C23.6463 20.7868 25.6448 19.8168 27.0581 18.208C28.6474 16.3896 29.5321 13.7063 29.5321 9.97344C29.5321 7.19512 29.1654 4.29711 28.4239 1.27664H20.4251V8.39764Z" fill="black"/>
</svg>
