<svg width="72" height="56" viewBox="0 0 72 56" fill="none" xmlns="http://www.w3.org/2000/svg">
<path fill-rule="evenodd" clip-rule="evenodd" d="M51.9785 28.8883L55.91 32.2197L49.308 35.1464L51.9785 28.8883ZM35.2745 10.1276L43.9603 6.04768V9.33857C43.8964 9.91224 43.8964 10.4913 43.9603 11.0649L43.9064 16.062L47.0354 16.4801C48.2169 17.3499 49.6188 17.871 51.0816 17.9839L49.2406 22.3066L25.6379 16.7768C25.336 18.1016 25.569 19.4919 26.2861 20.646C27.0033 21.8 28.1468 22.6245 29.4683 22.9405L47.1636 27.135L42.153 38.8959H47.5479L48.6472 42.5037C48.5014 42.4684 48.352 42.4503 48.2021 42.4498L38.3092 42.4902C37.9071 42.4914 37.5163 42.6238 37.1962 42.8672C36.8761 43.1106 36.6442 43.4518 36.5356 43.839L34.6204 50.6433L29.3267 45.9565C28.9891 45.6546 28.5522 45.4877 28.0993 45.4877C27.6465 45.4877 27.2095 45.6546 26.872 45.9565L21.6322 50.6433L19.7103 43.839C19.5961 43.4275 19.3429 43.0682 18.9937 42.8223C18.6445 42.5764 18.221 42.4591 17.7951 42.4902L10.5119 42.5442L12.4204 36.2928L4.17969 32.6378L10.6401 27.162C10.9999 26.8552 11.2289 26.4225 11.2803 25.9524C11.3317 25.4824 11.2016 25.0104 10.9166 24.6331L7.09293 18.8269L14.0793 17.9299C14.5374 17.8682 14.9559 17.6375 15.2528 17.2832C15.5497 16.929 15.7036 16.4766 15.6843 16.0148L15.6101 9.00138L22.0166 12.009C22.4226 12.2028 22.8855 12.2411 23.3179 12.1169C23.7502 11.9927 24.1221 11.7144 24.3634 11.3347L28.1196 5.3396L31.8825 11.3347C32.1071 11.6826 32.4417 11.9453 32.833 12.081C33.2243 12.2167 33.6498 12.2175 34.0415 12.0832C34.4333 11.949 34.7689 11.6875 34.9948 11.3404C35.2207 10.9933 35.3239 10.5806 35.288 10.168L35.2745 10.1276Z" fill="#FCCA19"/>
<path d="M2.97372 33.6425C2.59562 33.9287 2.12225 34.0592 1.65092 34.0071C1.17959 33.9551 0.746105 33.7244 0.439569 33.3626C0.133033 33.0008 -0.0232618 32.5353 0.00280666 32.0619C0.0288752 31.5884 0.235327 31.1429 0.579729 30.8169L6.97268 25.422L2.36679 18.4221C2.19706 18.1603 2.09612 17.86 2.07332 17.5488C2.05052 17.2376 2.1066 16.9257 2.23637 16.642C2.36614 16.3582 2.5654 16.1118 2.8157 15.9255C3.066 15.7393 3.35926 15.6192 3.66831 15.5763L11.9765 14.4704L11.8888 6.08805C11.8861 5.84572 11.9313 5.60524 12.0218 5.38042C12.1123 5.1556 12.2463 4.95085 12.4161 4.77793C12.5858 4.60501 12.7881 4.46731 13.0112 4.37273C13.2344 4.27816 13.474 4.22856 13.7163 4.2268C14.0035 4.22606 14.2872 4.29064 14.5458 4.41563L22.1054 7.96278L26.5562 0.861736C26.8184 0.448045 27.2336 0.154871 27.7112 0.046216C28.1887 -0.0624395 28.6899 0.0222465 29.1053 0.281784C29.3519 0.434965 29.5578 0.645506 29.7055 0.895457L35.0127 9.34522C35.2747 9.76016 35.3612 10.2622 35.253 10.7409C35.1449 11.2195 34.851 11.6357 34.4361 11.8977C34.0212 12.1597 33.5191 12.2461 33.0405 12.138C32.5618 12.0299 32.1457 11.736 31.8836 11.3211L28.1207 5.32601L24.3645 11.3211C24.1233 11.7008 23.7514 11.9791 23.319 12.1033C22.8866 12.2276 22.4237 12.1892 22.0177 11.9955L15.6113 8.98781L15.6854 16.0012C15.7082 16.4653 15.5559 16.921 15.2587 17.2782C14.9614 17.6353 14.541 17.8679 14.0805 17.9299L7.06709 18.8605L10.8907 24.6667C11.1757 25.0441 11.3059 25.516 11.2545 25.986C11.2031 26.4561 10.9741 26.8888 10.6142 27.1956L2.97372 33.6425ZM48.2302 42.4497C48.7203 42.4497 49.1902 42.6444 49.5368 42.9909C49.8833 43.3374 50.0779 43.8074 50.0779 44.2974C50.0779 44.7875 49.8833 45.2575 49.5368 45.604C49.1902 45.9505 48.7203 46.1452 48.2302 46.1452H39.7265L37.3864 54.4466C37.2529 54.9194 36.9371 55.32 36.5085 55.5602C36.0799 55.8004 35.5734 55.8607 35.1004 55.7279C34.7951 55.6413 34.5168 55.4789 34.2911 55.2558L28.1005 49.7733L21.8289 55.33C21.647 55.4909 21.4351 55.6143 21.2055 55.6933C20.9758 55.7722 20.7328 55.8051 20.4905 55.7901C20.2481 55.7751 20.011 55.7124 19.7929 55.6057C19.5747 55.499 19.3798 55.3503 19.2191 55.1682C19.0351 54.9608 18.9013 54.7139 18.828 54.4466L16.4947 46.1587L7.22895 46.2261C6.73889 46.2261 6.26891 46.0314 5.92239 45.6849C5.57587 45.3384 5.38119 44.8684 5.38119 44.3784C5.38119 43.8883 5.57587 43.4183 5.92239 43.0718C6.26891 42.7253 6.73889 42.5306 7.22895 42.5306L17.7692 42.4564C18.1952 42.4253 18.6187 42.5426 18.9679 42.7885C19.317 43.0344 19.5702 43.3937 19.6844 43.8051L21.6333 50.6432L26.9203 45.9631C27.2579 45.6612 27.6948 45.4943 28.1477 45.4943C28.6005 45.4943 29.0375 45.6612 29.375 45.9631L34.6688 50.6499L36.584 43.8456C36.6926 43.4584 36.9245 43.1173 37.2446 42.8738C37.5647 42.6304 37.9554 42.4981 38.3575 42.4969L48.2302 42.4497Z" fill="#2C2C2C"/>
<path d="M61.4201 30.1494C60.6203 30.6391 60.0155 31.3914 59.7091 32.2777C59.4026 33.1639 59.4135 34.1291 59.7398 35.0083C60.0662 35.8874 60.6878 36.6259 61.4984 37.0974C62.309 37.569 63.2582 37.7444 64.1838 37.5935C65.1093 37.4427 65.9538 36.9751 66.5727 36.2706C67.1917 35.5661 67.5467 34.6685 67.5771 33.7312C67.6075 32.794 67.3114 31.8752 66.7394 31.1321C66.1674 30.389 65.3551 29.8676 64.4412 29.6571C63.9302 29.5345 63.3998 29.5149 62.8811 29.5994C62.3624 29.6839 61.8658 29.8709 61.4201 30.1494ZM56.0252 31.8016C56.2168 30.9731 56.5449 30.1823 56.9963 29.4615L52.2757 28.3353L47.7777 38.8959H42.2007L47.2113 27.135L29.516 22.9404C28.1945 22.6245 27.051 21.8 26.3338 20.646C25.6167 19.4919 25.3837 18.1015 25.6856 16.7768L49.2883 22.3066L51.1293 17.9839C49.4988 17.8715 47.9462 17.2438 46.6958 16.1914C45.4454 15.1389 44.5618 13.7163 44.1728 12.1289C43.7838 10.5415 43.9094 8.87152 44.5315 7.36018C45.1536 5.84884 46.24 4.57437 47.6338 3.72083C49.0276 2.86729 50.6566 2.47887 52.2856 2.61168C53.9145 2.74448 55.4591 3.39164 56.6963 4.45967C57.9334 5.5277 58.799 6.96132 59.1681 8.55347C59.5372 10.1456 59.3906 11.8139 58.7496 13.3173C58.5987 13.6666 58.4229 14.0047 58.2236 14.3288H58.2573L54.3595 23.4867L64.7649 25.9279C64.9538 25.9279 65.1426 25.9953 65.3381 26.0425C66.8196 26.3975 68.1629 27.1832 69.1985 28.3005C70.2341 29.4179 70.9157 30.8168 71.1574 32.3209C71.399 33.8251 71.19 35.3671 70.5565 36.7526C69.9231 38.1381 68.8936 39.305 67.5979 40.1063C66.3022 40.9076 64.7983 41.3073 63.2757 41.255C61.7532 41.2028 60.2802 40.7009 59.0425 39.8127C57.8048 38.9245 56.8577 37.6897 56.3207 36.264C55.7838 34.8383 55.6809 33.2856 56.0252 31.8016ZM50.0234 13.9714C50.5071 14.1806 51.0275 14.2922 51.5545 14.2996C52.0815 14.307 52.6048 14.2101 53.0943 14.0146C53.5837 13.8191 54.0297 13.5287 54.4065 13.1602C54.7834 12.7917 55.0837 12.3524 55.2901 11.8674C55.7068 10.8907 55.7194 9.78861 55.325 8.80265C54.9306 7.8167 54.1615 7.02729 53.1861 6.60739C52.4575 6.29385 51.6522 6.20369 50.8722 6.34835C50.0923 6.49302 49.3729 6.86598 48.8052 7.41998C48.2374 7.97398 47.847 8.68406 47.6833 9.46022C47.5196 10.2364 47.59 11.0437 47.8856 11.7798C48.078 12.2669 48.3647 12.7113 48.7292 13.0874C49.0938 13.4635 49.529 13.7639 50.0099 13.9714H50.0234Z" fill="#2C2C2C"/>
<path d="M37.9072 34.7214C38.399 34.7214 38.8707 34.9168 39.2185 35.2646C39.5663 35.6124 39.7617 36.0841 39.7617 36.5759C39.7617 37.0678 39.5663 37.5395 39.2185 37.8873C38.8707 38.2351 38.399 38.4304 37.9072 38.4304H37.3272C36.8354 38.4304 36.3637 38.2351 36.0159 37.8873C35.6681 37.5395 35.4727 37.0678 35.4727 36.5759C35.4727 36.0841 35.6681 35.6124 36.0159 35.2646C36.3637 34.9168 36.8354 34.7214 37.3272 34.7214H37.9072ZM18.9508 34.7214C19.4427 34.7214 19.9144 34.9168 20.2621 35.2646C20.6099 35.6124 20.8053 36.0841 20.8053 36.5759C20.8053 37.0678 20.6099 37.5395 20.2621 37.8873C19.9144 38.2351 19.4427 38.4304 18.9508 38.4304H15.3362C14.8444 38.4304 14.3727 38.2351 14.0249 37.8873C13.6771 37.5395 13.4817 37.0678 13.4817 36.5759C13.4817 36.0841 13.6771 35.6124 14.0249 35.2646C14.3727 34.9168 14.8444 34.7214 15.3362 34.7214H18.9508ZM8.16101 34.7214C8.65286 34.7214 9.12455 34.9168 9.47233 35.2646C9.82012 35.6124 10.0155 36.0841 10.0155 36.5759C10.0155 37.0678 9.82012 37.5395 9.47233 37.8873C9.12455 38.2351 8.65286 38.4304 8.16101 38.4304H7.58106C7.08922 38.4304 6.61751 38.2351 6.26973 37.8873C5.92194 37.5395 5.72656 37.0678 5.72656 36.5759C5.72656 36.0841 5.92194 35.6124 6.26973 35.2646C6.61751 34.9168 7.08922 34.7214 7.58106 34.7214H8.16101ZM29.9901 34.7214C30.482 34.7214 30.9537 34.9168 31.3015 35.2646C31.6492 35.6124 31.8446 36.0841 31.8446 36.5759C31.8446 37.0678 31.6492 37.5395 31.3015 37.8873C30.9537 38.2351 30.482 38.4304 29.9901 38.4304H26.3553C25.8635 38.4304 25.3918 38.2351 25.044 37.8873C24.6962 37.5395 24.5008 37.0678 24.5008 36.5759C24.5008 36.0841 24.6962 35.6124 25.044 35.2646C25.3918 34.9168 25.8635 34.7214 26.3553 34.7214H29.9901Z" fill="#2C2C2C"/>
</svg>
