<svg width="341" height="305" viewBox="0 0 341 305" fill="none" xmlns="http://www.w3.org/2000/svg">
<path d="M96.2748 234.389C86.3133 230.796 77.69 224.864 71.7295 218.196C64.6957 210.325 61.3646 200.459 61.9066 188.928H96.2748V234.389ZM206.789 167.495V79.8704C248.149 87.2894 283.615 122.14 257.378 151.143C246.267 163.427 226.831 161.498 206.789 167.495Z" fill="#FCCA19"/>
<path d="M62.338 66.0857C62.338 66.0857 68.7248 27.2779 55.592 30.3929C42.4591 33.5094 62.338 66.0857 62.338 66.0857Z" fill="#FCCA19"/>
<path d="M75.8398 99.2742C75.8398 99.2742 95.4417 71.9565 85.6644 66.9369C75.887 61.9173 75.8398 99.2742 75.8398 99.2742Z" fill="#FCCA19"/>
<path d="M91.4062 120.158C91.4062 120.158 111.008 92.84 101.231 87.8204C91.4535 82.8009 91.4062 120.158 91.4062 120.158Z" fill="#2356F1"/>
<path d="M76.9973 98.9053C76.9973 98.9053 50.552 77.3456 47.2513 88.9103C43.9506 100.477 76.9973 98.9053 76.9973 98.9053Z" fill="#FCCA19"/>
<path d="M91.7259 119.086C91.7259 119.086 60.1469 106.168 60.3585 118.194C60.5716 130.22 91.7259 119.086 91.7259 119.086Z" fill="#2356F1"/>
<path d="M67.2575 78.5548C67.2575 78.5548 41.7348 58.8205 39.1771 69.9909C36.6193 81.1597 67.2575 78.5548 67.2575 78.5548Z" fill="#FCCA19"/>
<path d="M66.8927 79.9438C66.8927 79.9438 85.7926 52.1329 75.8904 47.366C65.9883 42.5976 66.8927 79.9438 66.8927 79.9438Z" fill="#FCCA19"/>
<path d="M52.0639 72.9171C52.1842 72.6035 52.5374 72.4451 52.8511 72.5654L65.7205 77.5104C65.1846 76.029 64.6654 74.5309 64.1645 73.0145C58.5512 55.9628 57.2114 42.4204 57.1992 42.288C57.1672 41.9515 57.4124 41.6546 57.7488 41.6227C58.0838 41.5907 58.3807 41.8358 58.4142 42.1708C58.4264 42.3047 59.7555 55.7345 65.3323 72.6613C65.8408 74.2066 66.398 75.8159 67.0039 77.4708L71.9718 55.8045C72.0479 55.4756 72.3752 55.2701 72.7025 55.3462C73.0314 55.4208 73.2354 55.7467 73.1593 56.0755L67.9235 78.9171C67.89 79.0663 67.8002 79.1927 67.6769 79.278C69.7596 84.7558 72.3783 90.7011 75.6455 96.7011L83.2259 73.8168C83.3325 73.4987 83.678 73.3236 83.9977 73.4317C84.3175 73.5367 84.4895 73.8823 84.3845 74.2005L76.4235 98.1216L76.8147 98.8006C80.6346 105.509 85.2782 112.221 90.8976 118.355L91.0818 118.351L97.3377 97.132C97.4321 96.8077 97.7716 96.6235 98.0943 96.7179C98.4171 96.8138 98.6013 97.1533 98.5054 97.4761L92.2374 118.742L92.277 118.937C92.2815 119.176 92.1475 119.383 91.9511 119.488C93.9578 121.606 96.0862 123.65 98.3395 125.593C98.5952 125.814 98.6242 126.199 98.4049 126.455L98.0882 126.648C97.904 126.694 97.7 126.653 97.5447 126.517C95.0615 124.377 92.6682 122.064 90.3663 119.585L74.9832 119.901C74.6467 119.908 74.3682 119.64 74.3621 119.304C74.3544 118.967 74.6224 118.689 74.9589 118.681L89.2747 118.389C84.5504 113.127 80.2312 107.153 76.3717 100.53C76.1114 100.086 75.8541 99.6349 75.5998 99.1812C75.5572 99.1767 75.3791 98.8889 75.2557 98.6453L60.71 92.7808C60.3979 92.6559 60.2472 92.2997 60.3721 91.9876C60.4984 91.6755 60.8516 91.5232 61.1653 91.6496L74.3696 96.9569C71.3582 91.3786 68.6513 85.3785 66.2792 79.0313L52.4141 73.7042C52.1005 73.5839 51.9436 73.2307 52.0639 72.9171Z" fill="#2C2C2C"/>
<path d="M141.994 188.921L26.6989 188.92C23.2642 188.92 20.4766 186.14 20.4766 182.705L20.4796 114.261C20.4796 110.827 23.2642 108.043 26.6974 108.043H141.994C145.427 108.043 148.21 110.827 148.21 114.261V182.705C148.21 186.139 145.427 188.921 141.994 188.921Z" fill="#C5C5C5"/>
<path d="M96.2766 188.928H59.4023L59.4054 188.92L63.8129 180.153H96.2766V188.928ZM96.2766 174.003H66.9051L96.2766 115.581V174.003Z" fill="#DFDFDF"/>
<path d="M80.803 108.045L40.4423 188.918L26.702 188.92C23.2612 188.92 20.4811 186.131 20.4811 182.705L20.4766 154.419L45.8562 108.045H80.803Z" fill="#DFDFDF"/>
<path d="M49.3697 152.801H37.2676C35.5868 152.801 34.2227 151.438 34.2227 149.756V139.225C34.2227 137.544 35.5868 136.18 37.2676 136.18H49.3697C51.0521 136.18 52.4147 137.544 52.4147 139.225V149.756C52.4147 151.438 51.0521 152.801 49.3697 152.801Z" fill="#FFECC9"/>
<path d="M39.7791 152.801H39.5645V136.18H39.7791V152.801Z" fill="#010101"/>
<path d="M47.1385 152.801H46.9238V140.195H52.4139V140.413H47.1385V152.801Z" fill="#010101"/>
<path d="M39.6701 140.413H34.2227V140.195H39.6701V140.413Z" fill="#010101"/>
<path d="M39.672 144.338H34.2246V144.12H39.672V144.338Z" fill="#010101"/>
<path d="M39.672 148.116H34.2246V147.9H39.672V148.116Z" fill="#010101"/>
<path d="M52.4147 144.338H47.0312V144.121H52.4147V144.338Z" fill="#010101"/>
<path d="M52.4166 148.117H47.0332V147.901H52.4166V148.117Z" fill="#010101"/>
<path d="M137.203 138.539L136.847 138.409C136.611 138.213 136.579 137.864 136.775 137.627C136.784 137.614 137.125 137.173 137.125 136.389C137.125 135.658 136.78 135.194 136.78 135.194C136.591 134.952 136.635 134.601 136.876 134.413C137.118 134.222 137.471 134.267 137.657 134.51C137.716 134.586 138.238 135.288 138.238 136.389C138.238 137.573 137.693 138.263 137.631 138.336C137.521 138.469 137.363 138.539 137.203 138.539Z" fill="white"/>
<path d="M139.08 139.274L138.787 139.189C138.525 139.027 138.446 138.685 138.608 138.423C138.608 138.423 139.176 137.488 139.18 136.415C139.183 135.644 138.749 134.609 138.583 134.274C138.445 134 138.554 133.665 138.83 133.528C139.101 133.391 139.439 133.501 139.576 133.775C139.608 133.834 140.299 135.229 140.295 136.421C140.286 137.818 139.581 138.963 139.552 139.011C139.447 139.18 139.264 139.274 139.08 139.274Z" fill="white"/>
<path d="M140.92 140.216L140.645 140.143C140.378 139.989 140.285 139.651 140.438 139.385C140.444 139.37 141.279 137.879 141.279 136.418C141.279 135.107 140.425 133.303 140.418 133.285C140.285 133.007 140.403 132.676 140.681 132.543C140.954 132.408 141.29 132.526 141.421 132.806C141.461 132.887 142.394 134.859 142.394 136.418C142.394 138.179 141.444 139.865 141.403 139.935C141.299 140.114 141.113 140.216 140.92 140.216Z" fill="white"/>
<path d="M142.802 141.139L142.52 141.063C142.255 140.909 142.167 140.568 142.319 140.303C142.333 140.283 143.415 138.395 143.338 136.438C143.266 134.583 142.193 132.188 142.182 132.165C142.056 131.885 142.181 131.555 142.461 131.427C142.735 131.301 143.07 131.424 143.196 131.707C143.245 131.812 144.37 134.326 144.452 136.396C144.539 138.685 143.333 140.777 143.281 140.863C143.179 141.04 142.994 141.139 142.802 141.139Z" fill="white"/>
<path d="M125.113 176.227C125.113 171.402 129.024 167.491 133.849 167.491C138.674 167.491 142.585 171.402 142.585 176.227C142.585 181.052 138.674 184.962 133.849 184.962C129.024 184.962 125.113 181.052 125.113 176.227Z" fill="#FFE6B4"/>
<path d="M112.996 176.227C112.996 171.402 116.906 167.491 121.73 167.491C126.555 167.491 130.466 171.402 130.466 176.227C130.466 181.052 126.555 184.962 121.73 184.962C116.906 184.962 112.996 181.052 112.996 176.227Z" fill="#FF3700"/>
<path d="M89.1706 127.414H34.2246V119.559H89.1706V127.414Z" fill="white"/>
<path d="M34.2246 180.153H101.361V174.003H34.2246V180.153Z" fill="white"/>
<path d="M96.2754 32.5137V18.0334C96.2754 13.0489 100.316 9.00824 105.301 9.00824L197.765 9.00519C202.748 9.00519 206.79 13.0489 206.79 18.0334V24.778C195.318 19.5848 184.254 16.1441 174.124 14.4556C169.152 13.6274 164.073 13.2255 158.939 13.2255C137.518 13.2255 115.207 20.2365 96.2754 32.5137ZM206.79 27.3769C194.249 21.3494 182.3 17.5082 171.731 15.7482C170.175 15.4894 168.608 15.2717 167.046 15.0951C169.342 15.296 171.621 15.5823 173.874 15.9583C184.073 17.6574 195.224 21.1499 206.79 26.4421V27.3769Z" fill="#689BF9"/>
<path d="M105.301 250.868C100.318 250.868 96.2773 246.821 96.2773 241.838V234.388C102.571 236.658 109.401 237.994 116.433 237.995C129.387 237.995 143.025 233.464 155.284 221.879C178.987 199.48 180.825 179.887 192.453 173.437C197.197 170.804 202.011 168.924 206.792 167.494V241.838C206.792 246.821 202.75 250.865 197.767 250.865L105.301 250.868ZM100.067 108.043H98.8747C103.112 100.055 106.601 90.5759 101.233 87.8203C100.618 87.5036 100.041 87.3559 99.5004 87.3559C98.2398 87.3559 97.1756 88.1598 96.2773 89.5163V34.3237C115.13 21.8699 137.471 14.7462 158.913 14.7462C161.642 14.7462 164.358 14.8604 167.048 15.0949C168.61 15.2715 170.177 15.4892 171.733 15.748C182.301 17.508 194.251 21.3492 206.792 27.3766V79.8699C201.596 78.9382 196.308 78.4403 191.037 78.4403C185.744 78.4403 180.475 78.9427 175.33 80.0146C153.379 84.5881 132.739 95.964 116.164 108.039H100.068L100.067 108.043Z" fill="#6097F8"/>
<path d="M96.2773 34.324V32.5138C115.209 20.2365 137.52 13.2256 158.941 13.2256C164.074 13.2256 169.153 13.6275 174.126 14.4557C184.256 16.1441 195.32 19.5849 206.792 24.7781V26.4421C195.226 21.15 184.075 17.6575 173.876 15.9584C171.623 15.5824 169.344 15.2961 167.048 15.0952C164.358 14.8607 161.642 14.7465 158.913 14.7465C137.471 14.7465 115.13 21.8702 96.2773 34.324Z" fill="#5993F5"/>
<path d="M116.429 237.996C109.397 237.994 102.567 236.659 96.2734 234.389V188.928H99.836L99.8391 188.922H141.995C145.428 188.922 148.211 186.139 148.211 182.706V114.262C148.211 110.827 145.428 108.044 141.995 108.044H140.5L140.501 108.039H116.16C132.735 95.9645 153.375 84.5886 175.326 80.0151C180.471 78.9433 185.74 78.4409 191.034 78.4409C196.304 78.4409 201.592 78.9387 206.788 79.8705V167.495C202.008 168.924 197.193 170.804 192.449 173.437C180.821 179.887 178.983 199.48 155.28 221.879C143.021 233.465 129.383 237.996 116.429 237.996Z" fill="url(#paint0_linear_6646_3916)"/>
<path d="M98.8727 108.043H96.2754V105.052L98.5073 97.476C98.6032 97.1532 98.419 96.8137 98.0963 96.7178C98.0384 96.701 97.9806 96.6934 97.9227 96.6934C97.6593 96.6934 97.4172 96.8655 97.3396 97.1319L96.2754 100.74V89.5165C97.1736 88.16 98.2378 87.3561 99.4984 87.3561C100.039 87.3561 100.616 87.5038 101.231 87.8205C106.599 90.5762 103.11 100.055 98.8727 108.043Z" fill="#175CF4"/>
<path d="M96.2773 105.052V100.74L97.3415 97.1319C97.4192 96.8654 97.6613 96.6934 97.9247 96.6934C97.9825 96.6934 98.0404 96.701 98.0982 96.7178C98.421 96.8137 98.6052 97.1532 98.5093 97.4759L96.2773 105.052Z" fill="#3171E4"/>
<path d="M141.997 188.921H99.841L140.502 108.043H141.997C145.43 108.043 148.213 110.827 148.213 114.261V182.705C148.213 186.139 145.43 188.921 141.997 188.921ZM127.791 182.52C129.362 184.033 131.496 184.962 133.85 184.962C138.675 184.962 142.586 181.052 142.586 176.227C142.586 171.402 138.675 167.491 133.85 167.491C131.496 167.491 129.362 168.422 127.791 169.935C126.221 168.422 124.085 167.491 121.731 167.491C116.906 167.491 112.997 171.402 112.997 176.227C112.997 181.052 116.906 184.962 121.731 184.962C124.085 184.962 126.221 184.033 127.791 182.52ZM142.689 131.378C142.613 131.378 142.536 131.394 142.463 131.427C142.182 131.555 142.058 131.885 142.184 132.165C142.195 132.188 143.268 134.583 143.34 136.438C143.417 138.395 142.335 140.283 142.321 140.303C142.169 140.568 142.257 140.909 142.522 141.063L142.804 141.139C142.995 141.139 143.181 141.04 143.283 140.863C143.335 140.777 144.541 138.685 144.454 136.396C144.372 134.326 143.247 131.812 143.198 131.707C143.105 131.5 142.9 131.378 142.689 131.378ZM140.919 132.487C140.838 132.487 140.756 132.505 140.68 132.543C140.401 132.676 140.284 133.007 140.416 133.285C140.424 133.303 141.278 135.107 141.278 136.418C141.278 137.879 140.442 139.37 140.436 139.385C140.284 139.651 140.377 139.989 140.643 140.143L140.919 140.216C141.112 140.216 141.298 140.114 141.401 139.935C141.443 139.865 142.393 138.179 142.393 136.418C142.393 134.859 141.459 132.887 141.42 132.806C141.325 132.605 141.124 132.487 140.919 132.487ZM139.077 133.469C138.993 133.469 138.908 133.489 138.828 133.528C138.553 133.665 138.443 134 138.582 134.274C138.748 134.609 139.182 135.644 139.179 136.415C139.174 137.488 138.606 138.423 138.606 138.423C138.445 138.685 138.524 139.027 138.786 139.189L139.078 139.274C139.262 139.274 139.445 139.18 139.55 139.011C139.579 138.963 140.284 137.818 140.293 136.421C140.298 135.229 139.606 133.834 139.574 133.775C139.477 133.58 139.279 133.469 139.077 133.469ZM137.219 134.295C137.099 134.295 136.979 134.333 136.877 134.413C136.636 134.601 136.592 134.952 136.781 135.194C136.781 135.194 137.126 135.658 137.126 136.389C137.126 137.173 136.785 137.614 136.776 137.627C136.58 137.864 136.612 138.213 136.848 138.409L137.204 138.539C137.364 138.539 137.522 138.469 137.632 138.336C137.694 138.263 138.239 137.573 138.239 136.389C138.239 135.288 137.717 134.586 137.658 134.51C137.55 134.369 137.385 134.295 137.219 134.295ZM96.2754 115.581V108.043H98.8727H100.065L96.2754 115.581Z" fill="#3078F0"/>
<path d="M99.836 188.928H96.2734V180.154H101.358V174.003H96.2734V115.581L100.063 108.044L100.064 108.039H116.16H140.501L140.5 108.044L99.8391 188.921L99.836 188.928Z" fill="url(#paint1_linear_6646_3916)"/>
<path d="M137.203 138.539L136.847 138.409C136.611 138.213 136.579 137.864 136.775 137.627C136.784 137.614 137.125 137.173 137.125 136.389C137.125 135.658 136.78 135.194 136.78 135.194C136.591 134.952 136.635 134.601 136.876 134.413C136.978 134.333 137.098 134.295 137.218 134.295C137.384 134.295 137.549 134.369 137.657 134.51C137.716 134.586 138.238 135.288 138.238 136.389C138.238 137.573 137.693 138.263 137.631 138.336C137.521 138.469 137.363 138.539 137.203 138.539Z" fill="#689BF9"/>
<path d="M139.08 139.274L138.787 139.189C138.525 139.027 138.446 138.685 138.608 138.423C138.608 138.423 139.176 137.488 139.18 136.415C139.183 135.644 138.749 134.609 138.583 134.274C138.445 134 138.554 133.665 138.83 133.528C138.909 133.489 138.994 133.469 139.078 133.469C139.281 133.469 139.479 133.58 139.576 133.775C139.608 133.834 140.299 135.229 140.295 136.421C140.286 137.818 139.581 138.963 139.552 139.011C139.447 139.18 139.264 139.274 139.08 139.274Z" fill="#689BF9"/>
<path d="M140.92 140.216L140.645 140.143C140.378 139.989 140.285 139.651 140.438 139.385C140.444 139.37 141.279 137.879 141.279 136.418C141.279 135.107 140.425 133.303 140.418 133.285C140.285 133.007 140.403 132.676 140.681 132.543C140.757 132.505 140.839 132.487 140.92 132.487C141.126 132.487 141.327 132.605 141.421 132.806C141.461 132.887 142.394 134.859 142.394 136.418C142.394 138.179 141.444 139.865 141.403 139.935C141.299 140.114 141.113 140.216 140.92 140.216Z" fill="#689BF9"/>
<path d="M142.802 141.139L142.52 141.063C142.255 140.909 142.167 140.568 142.319 140.303C142.333 140.283 143.415 138.395 143.338 136.438C143.266 134.583 142.193 132.188 142.182 132.165C142.056 131.885 142.181 131.555 142.461 131.427C142.534 131.394 142.611 131.378 142.688 131.378C142.898 131.378 143.103 131.5 143.196 131.707C143.245 131.812 144.37 134.326 144.452 136.396C144.539 138.685 143.333 140.777 143.281 140.863C143.179 141.04 142.994 141.139 142.802 141.139Z" fill="#689BF9"/>
<path d="M133.85 184.962C131.497 184.962 129.362 184.033 127.791 182.52C129.441 180.932 130.468 178.7 130.468 176.227C130.468 173.756 129.441 171.523 127.791 169.935C129.362 168.422 131.497 167.491 133.85 167.491C138.675 167.491 142.586 171.402 142.586 176.227C142.586 181.052 138.675 184.962 133.85 184.962Z" fill="#6891DD"/>
<path d="M121.73 184.962C116.906 184.962 112.996 181.052 112.996 176.227C112.996 171.402 116.906 167.491 121.73 167.491C124.084 167.491 126.22 168.422 127.79 169.935C129.44 171.523 130.466 173.756 130.466 176.227C130.466 178.7 129.44 180.932 127.79 182.52C126.22 184.033 124.084 184.962 121.73 184.962Z" fill="#68519B"/>
<path d="M96.2754 180.153H101.361V174.003H96.2754V180.153Z" fill="#689BF9"/>
<path d="M197.767 250.866L105.301 250.868C100.318 250.868 96.2773 246.821 96.2773 241.838V18.0332C96.2773 13.0487 100.318 9.00803 105.303 9.00803L197.767 9.00499C202.75 9.00499 206.792 13.0487 206.792 18.0332V241.838C206.792 246.821 202.75 250.866 197.767 250.866Z" fill="white"/>
<path d="M197.764 250.866L105.299 250.868C100.316 250.868 96.275 246.821 96.275 241.838L96.2734 225.364H206.788L206.79 241.838C206.79 246.821 202.747 250.866 197.764 250.866Z" fill="#F3F3F3"/>
<path d="M199.205 250.866H104.088C99.7721 250.866 96.2734 247.368 96.2734 243.052V241.54H206.788V243.283C206.788 247.47 203.391 250.866 199.205 250.866Z" fill="#DFDFDF"/>
<path d="M206.79 241.838C206.79 246.832 202.744 250.872 197.75 250.872L105.299 250.868C100.306 250.868 96.2758 246.832 96.2758 241.838V18.0334C96.2758 13.0397 100.307 9.00816 105.301 9.00816L197.75 9.01274C202.744 9.01274 206.79 13.0397 206.79 18.0334V241.838ZM208.697 9.01274C206.443 5.99825 202.835 4.04947 198.785 4.04947H104.27C100.221 4.04947 96.6275 5.99825 94.359 9.01274C92.8061 11.0833 91.8926 13.6563 91.8926 16.4424V242.803C91.8926 249.639 97.4344 255.181 104.27 255.181H198.785C205.621 255.181 211.178 249.639 211.178 242.803V16.4424C211.178 13.6563 210.265 11.0833 208.697 9.01274Z" fill="#2C2C2C"/>
<path d="M159.111 53.8572H144.865L145.981 24.7978H157.823L159.111 53.8572Z" fill="#898989"/>
<path d="M153.144 66.1619H150.832C147.537 66.1619 144.865 63.4899 144.865 60.1953V53.8572H159.111V60.1953C159.111 63.4899 156.441 66.1619 153.144 66.1619Z" fill="#282728"/>
<path d="M144.868 53.8572H130.621L134.025 24.7978H145.984L144.868 53.8572Z" fill="white"/>
<path d="M138.9 66.1621H136.587C133.291 66.1621 130.619 63.4902 130.619 60.1955V53.8575H144.866V60.1955C144.866 63.4902 142.195 66.1621 138.9 66.1621Z" fill="#F3F3F3"/>
<path d="M130.546 53.8572H116.299L122.279 24.7978H133.853L130.546 53.8572Z" fill="#898989"/>
<path d="M124.578 66.1621H122.265C118.969 66.1621 116.297 63.4902 116.297 60.1955V53.8575H130.544V60.1955C130.544 63.4902 127.872 66.1621 124.578 66.1621Z" fill="#282728"/>
<path d="M116.277 53.8572H102.031L110.029 24.7978H122.277L116.277 53.8572Z" fill="white"/>
<path d="M110.31 66.1619H107.998C104.703 66.1619 102.031 63.4899 102.031 60.1953V53.8572H116.277V60.1953C116.277 63.4899 113.607 66.1619 110.31 66.1619Z" fill="#F3F3F3"/>
<path d="M102.058 53.8572H87.8105L98.0294 24.7978H110.026L102.058 53.8572Z" fill="#898989"/>
<path d="M96.0913 66.1619H93.7786C90.4825 66.1619 87.8105 63.4899 87.8105 60.1953V53.8572H102.058V60.1953C102.058 63.4899 99.3859 66.1619 96.0913 66.1619Z" fill="#282728"/>
<path d="M159.183 53.8572H173.429L170.026 24.7978H158.068L159.183 53.8572Z" fill="white"/>
<path d="M165.146 66.1619H167.46C170.755 66.1619 173.425 63.4899 173.425 60.1953V53.8572H159.18V60.1953C159.18 63.4899 161.852 66.1619 165.146 66.1619Z" fill="#F3F3F3"/>
<path d="M173.506 53.8572H187.753L181.773 24.7978H170.199L173.506 53.8572Z" fill="#898989"/>
<path d="M179.47 66.1619H181.785C185.079 66.1619 187.751 63.4899 187.751 60.1953V53.8572H173.504V60.1953C173.504 63.4899 176.176 66.1619 179.47 66.1619Z" fill="#282728"/>
<path d="M187.77 53.8572H202.017L194.02 24.7978H181.771L187.77 53.8572Z" fill="white"/>
<path d="M193.736 66.1619H196.05C199.345 66.1619 202.017 63.4899 202.017 60.1953V53.8572H187.77V60.1953C187.77 63.4899 190.442 66.1619 193.736 66.1619Z" fill="#F3F3F3"/>
<path d="M201.988 53.8572H216.235L206.017 24.7978H194.02L201.988 53.8572Z" fill="#898989"/>
<path d="M207.953 66.1619H210.267C213.562 66.1619 216.234 63.4899 216.234 60.1953V53.8572H201.986V60.1953C201.986 63.4899 204.658 66.1619 207.953 66.1619Z" fill="#282728"/>
<path d="M192.72 91.3086H155.189V83.9003H192.72V91.3086Z" fill="#F3F3F3"/>
<path d="M192.346 107.431H184.594V99.6787H192.346V107.431Z" fill="#F3F3F3"/>
<path d="M192.72 164.808H155.189V157.401H192.72V164.808Z" fill="#F3F3F3"/>
<path d="M139.749 221.805H166.763V216.648H139.749V221.805ZM166.979 222.021H139.533V216.429H166.979V222.021Z" fill="#6A8EC8"/>
<path d="M192.346 180.932H184.594V173.179H192.346V180.932Z" fill="#F3F3F3"/>
<path d="M173.955 211.861H134.182V211.645H173.955V211.861Z" fill="#6A8EC8"/>
<path d="M105.523 199.657H196.177V202.15H105.523V199.657Z" fill="#DFDFDF"/>
<path d="M105.732 120.942H196.39V123.436H105.732V120.942Z" fill="#DFDFDF"/>
<path d="M105.734 125.827H196.388V128.32H105.734V125.827Z" fill="#DFDFDF"/>
<path d="M105.605 131.228L132.943 131.182V133.677L105.605 133.721V131.228Z" fill="#DFDFDF"/>
<path d="M105.523 194.771H196.18V197.265H105.523V194.771Z" fill="#DFDFDF"/>
<path d="M105.398 205.057L132.737 205.013V207.507L105.398 207.551V205.057Z" fill="#DFDFDF"/>
<path d="M184.496 90.7559C184.286 90.7559 184.115 90.5838 184.115 90.3752V84.8335C184.115 84.6234 184.286 84.4528 184.496 84.4528C184.706 84.4528 184.876 84.6234 184.876 84.8335V90.3752C184.876 90.5838 184.706 90.7559 184.496 90.7559Z" fill="#2C2C2C"/>
<path d="M187.18 86.4287L190.525 86.4181L188.975 88.7886L187.18 86.4287Z" fill="white"/>
<path d="M187.942 86.8068L188.949 88.1298L189.817 86.8007L187.942 86.8068ZM188.978 89.1697L188.669 89.0205L186.874 86.6591L186.834 86.2602C186.898 86.1308 187.03 86.0486 187.175 86.0486L190.521 86.0379C190.662 86.0379 190.789 86.1141 190.856 86.2374L190.84 86.6271L189.29 88.9976L188.978 89.1697Z" fill="#2C2C2C"/>
<path d="M186.909 102.431C186.904 102.398 186.831 101.609 187.303 101.06C187.57 100.751 187.947 100.582 188.425 100.556C188.884 100.537 189.258 100.658 189.537 100.933C190.056 101.446 190.03 102.287 190.029 102.322L189.598 102.305C189.598 102.305 189.616 101.615 189.232 101.238C189.042 101.052 188.788 100.97 188.45 100.987C188.09 101.006 187.816 101.125 187.632 101.341C187.277 101.752 187.337 102.387 187.337 102.387L186.909 102.431Z" fill="#2C2C2C"/>
<path d="M186.641 102.718L186.496 102.863L186.033 105.707L186.181 105.818L190.937 105.764L191.085 105.62L190.654 102.896L190.505 102.718H186.641ZM186.184 106.249C185.863 106.249 185.605 105.99 185.605 105.672L186.067 102.828C186.064 102.546 186.323 102.287 186.641 102.287H190.505C190.823 102.287 191.082 102.546 191.082 102.863L191.513 105.586C191.516 105.936 191.257 106.195 190.94 106.195L186.184 106.249Z" fill="#2C2C2C"/>
<path d="M104.82 69.4292H145.324V115.457H104.82V69.4292Z" fill="#F3F3F3"/>
<path d="M120.489 78.4401L122.086 76.7456C122.086 76.7456 123.312 77.5312 124.702 77.4718C125.423 77.4414 126.988 77.0364 126.988 77.0364L128.11 78.6182C128.11 78.6182 131.528 78.9638 133.252 80.3432C134.974 81.7195 141.152 98.0937 141.152 98.0937L140.453 99.913L141.434 102.392L139.636 103.782L138.002 101.385L135.931 100.705L131.072 89.411L132.676 104.907H116.951L117.295 89.411L113.859 99.8628L111.972 101.032L110.844 103.328L108.464 102.631L108.978 100.335L108.035 98.2459C108.035 98.2459 112.016 83.5556 113.507 81.9479C114.999 80.3432 120.489 78.4401 120.489 78.4401Z" fill="#FCCA19"/>
<path d="M136.891 110.89C136.891 108.719 138.655 106.961 140.832 106.961C143.008 106.961 144.772 108.719 144.772 110.89C144.772 113.061 143.008 114.82 140.832 114.82C138.655 114.82 136.891 113.061 136.891 110.89Z" fill="#FCCA19"/>
<path d="M139.654 109.111C139.501 109.111 139.348 109.162 139.19 109.266C138.805 109.519 138.614 109.817 138.607 110.179C138.589 111.324 140.336 112.728 140.825 113.1C141.559 112.53 143.083 111.128 143.06 110.097C143.051 109.764 142.882 109.491 142.542 109.266C142.328 109.121 142.119 109.077 141.903 109.123C141.396 109.235 141.026 109.838 141.026 109.838L140.84 109.942L140.655 109.834C140.655 109.834 140.311 109.246 139.82 109.13L139.654 109.111ZM140.827 113.585L140.703 113.546C140.598 113.471 138.15 111.725 138.176 110.172C138.185 109.663 138.445 109.237 138.952 108.905C139.268 108.697 139.595 108.634 139.922 108.71C140.339 108.811 140.659 109.126 140.845 109.356C141.04 109.123 141.375 108.8 141.807 108.703C142.139 108.628 142.468 108.698 142.783 108.905C143.241 109.213 143.48 109.608 143.491 110.088C143.527 111.63 141.06 113.466 140.954 113.543L140.827 113.585Z" fill="#2C2C2C"/>
<path d="M277.602 70.8375C277.602 63.3774 283.666 57.3301 291.144 57.3301C298.624 57.3301 304.686 63.3774 304.686 70.8375C304.686 78.2945 298.624 84.3418 291.144 84.3418C283.666 84.3418 277.602 78.2945 277.602 70.8375Z" fill="white"/>
<path d="M291.144 57.7105C283.886 57.7105 277.982 63.5994 277.982 70.8372C277.982 78.072 283.886 83.9609 291.144 83.9609C298.401 83.9609 304.305 78.072 304.305 70.8372C304.305 63.5994 298.401 57.7105 291.144 57.7105ZM291.144 84.7222C283.467 84.7222 277.221 78.4937 277.221 70.8372C277.221 63.1792 283.467 56.9493 291.144 56.9493C298.822 56.9493 305.067 63.1792 305.067 70.8372C305.067 78.4937 298.822 84.7222 291.144 84.7222Z" fill="#2C2C2C"/>
<path d="M287.091 64.5187C286.523 64.5187 285.961 64.706 285.384 65.0836C283.998 65.9925 283.315 67.0734 283.294 68.3873C283.223 72.5193 289.603 77.545 291.114 78.6777C292.628 77.4993 299.092 72.224 298.993 68.1042C298.966 66.8877 298.355 65.8981 297.13 65.082C296.343 64.5568 295.569 64.3878 294.774 64.5674C292.935 64.9815 291.647 67.0947 291.634 67.1161C291.536 67.279 291.356 67.3795 291.168 67.3779C290.976 67.3764 290.799 67.2729 290.705 67.1069C290.691 67.0871 289.476 65.012 287.71 64.5933C287.502 64.5446 287.295 64.5187 287.091 64.5187ZM291.12 79.8911L290.81 79.7906C290.455 79.5409 282.124 73.5972 282.216 68.3691C282.243 66.6943 283.109 65.2861 284.792 64.1823C285.824 63.5017 286.891 63.287 287.964 63.5443C289.467 63.9036 290.592 65.1155 291.18 65.8905C291.796 65.1049 292.979 63.8656 294.537 63.5154C295.621 63.2764 296.696 63.4956 297.728 64.1838C299.247 65.1962 300.036 66.5071 300.073 68.0798C300.194 73.279 291.798 79.5227 291.44 79.7845L291.12 79.8911Z" fill="#2C2C2C"/>
<path d="M174.275 107.431H158.709C156.767 107.431 155.189 105.854 155.189 103.91V102.89C155.189 100.945 156.767 99.3697 158.709 99.3697H174.275C176.219 99.3697 177.797 100.945 177.797 102.89V103.91C177.797 105.854 176.219 107.431 174.275 107.431Z" fill="#FCCA19"/>
<path d="M184.498 164.255C184.288 164.255 184.117 164.084 184.117 163.874V158.334C184.117 158.125 184.288 157.953 184.498 157.953C184.708 157.953 184.878 158.125 184.878 158.334V163.874C184.878 164.084 184.708 164.255 184.498 164.255Z" fill="#2C2C2C"/>
<path d="M187.18 159.928L190.525 159.917L188.975 162.289L187.18 159.928Z" fill="white"/>
<path d="M187.942 160.306L188.949 161.629L189.817 160.299L187.942 160.306ZM188.978 162.67L188.669 162.519L186.874 160.158L186.834 159.76C186.898 159.631 187.03 159.547 187.175 159.547L190.521 159.537C190.662 159.537 190.789 159.613 190.856 159.736L190.84 160.126L189.29 162.498L188.978 162.67Z" fill="#2C2C2C"/>
<path d="M186.909 175.932C186.904 175.897 186.831 175.11 187.303 174.558C187.57 174.25 187.947 174.081 188.425 174.055C188.885 174.032 189.258 174.158 189.537 174.432C190.056 174.946 190.03 175.786 190.029 175.822L189.598 175.806C189.598 175.806 189.616 175.116 189.232 174.738C189.042 174.553 188.788 174.472 188.45 174.487C188.09 174.506 187.816 174.624 187.632 174.84C187.277 175.253 187.337 175.888 187.337 175.888L186.909 175.932Z" fill="#2C2C2C"/>
<path d="M186.641 176.217L186.496 176.361L186.033 179.205L186.181 179.316L190.937 179.265L191.085 179.12L190.654 176.395L190.505 176.217H186.641ZM186.184 179.749C185.863 179.749 185.605 179.49 185.605 179.172L186.067 176.328C186.064 176.045 186.323 175.786 186.641 175.786H190.505C190.823 175.786 191.082 176.045 191.082 176.361L191.513 179.085C191.516 179.438 191.257 179.696 190.94 179.696L186.184 179.749Z" fill="#2C2C2C"/>
<path d="M104.82 142.93H145.324V188.956H104.82V142.93Z" fill="#F3F3F3"/>
<path d="M136.891 184.389C136.891 182.22 138.655 180.46 140.832 180.46C143.008 180.46 144.772 182.22 144.772 184.389C144.772 186.56 143.008 188.32 140.832 188.32C138.655 188.32 136.891 186.56 136.891 184.389Z" fill="#FCCA19"/>
<path d="M139.656 182.611C139.503 182.611 139.349 182.663 139.192 182.765C138.807 183.018 138.616 183.316 138.609 183.68C138.591 184.824 140.338 186.227 140.827 186.6C141.561 186.03 143.085 184.628 143.062 183.596C143.053 183.263 142.884 182.991 142.544 182.765C142.331 182.62 142.121 182.579 141.905 182.623C141.48 182.719 141.129 183.173 141.028 183.339L140.841 183.442L140.657 183.334C140.657 183.334 140.311 182.747 139.822 182.631L139.656 182.611ZM140.829 187.084L140.705 187.046C140.6 186.971 138.152 185.223 138.178 183.672C138.187 183.164 138.447 182.738 138.954 182.406C139.27 182.198 139.594 182.127 139.924 182.212C140.341 182.311 140.661 182.626 140.847 182.858C141.042 182.623 141.377 182.299 141.809 182.203C142.141 182.13 142.47 182.195 142.785 182.406C143.243 182.711 143.482 183.109 143.493 183.587C143.529 185.131 141.061 186.965 140.956 187.043L140.829 187.084Z" fill="#2C2C2C"/>
<path d="M174.275 180.932H158.709C156.767 180.932 155.189 179.356 155.189 177.41V176.39C155.189 174.446 156.767 172.869 158.709 172.869H174.275C176.219 172.869 177.797 174.446 177.797 176.39V177.41C177.797 179.356 176.219 180.932 174.275 180.932Z" fill="#FCCA19"/>
<path d="M118.523 147.849H131.059L132.942 155.255L136.037 180.932L130.333 181.475L125.073 159.917L121.834 181.475L115.662 180.46L117.005 155.694L118.523 147.849Z" fill="#2C2C2C"/>
<path d="M131.062 147.849H118.526L118.52 146.542H131.062V147.849Z" fill="#FCCA19"/>
<path d="M201.621 85.8718H247.524C248.554 85.8718 249.393 87.4324 249.393 89.3568V132.426C249.393 134.349 248.554 135.911 247.524 135.911H201.621C200.587 135.911 199.75 134.349 199.75 132.426V89.3568C199.75 87.4324 200.587 85.8718 201.621 85.8718Z" fill="white"/>
<path d="M201.617 86.2522C200.912 86.2522 200.126 87.5265 200.126 89.3565V132.426C200.126 134.254 200.912 135.53 201.617 135.53H247.519C248.223 135.53 249.008 134.254 249.008 132.426V89.3565C249.008 87.5265 248.223 86.2522 247.519 86.2522H201.617ZM247.519 136.291H201.617C200.353 136.291 199.365 134.592 199.365 132.426V89.3565C199.365 87.1885 200.353 85.491 201.617 85.491H247.519C248.782 85.491 249.77 87.1885 249.77 89.3565V132.426C249.77 134.592 248.782 136.291 247.519 136.291Z" fill="#2C2C2C"/>
<path d="M285.179 99.2054H317.208C317.929 99.2054 318.512 100.295 318.512 101.638V131.69C318.512 133.033 317.929 134.123 317.208 134.123H285.179C284.458 134.123 283.873 133.033 283.873 131.69V101.638C283.873 100.295 284.458 99.2054 285.179 99.2054Z" fill="white"/>
<path d="M285.179 99.586C284.742 99.586 284.253 100.463 284.253 101.638V131.69C284.253 132.866 284.742 133.743 285.179 133.743H317.207C317.644 133.743 318.131 132.866 318.131 131.69V101.638C318.131 100.463 317.644 99.586 317.207 99.586H285.179ZM317.207 134.504H285.179C284.234 134.504 283.492 133.268 283.492 131.69V101.638C283.492 100.061 284.234 98.8248 285.179 98.8248H317.207C318.153 98.8248 318.893 100.061 318.893 101.638V131.69C318.893 133.268 318.153 134.504 317.207 134.504Z" fill="#2C2C2C"/>
<path d="M264.202 145.489H290.087C290.668 145.489 291.142 146.37 291.142 147.456V171.742C291.142 172.828 290.668 173.709 290.087 173.709H264.202C263.618 173.709 263.146 172.828 263.146 171.742V147.456C263.146 146.37 263.618 145.489 264.202 145.489Z" fill="white"/>
<path d="M264.201 145.869C263.926 145.869 263.527 146.487 263.527 147.456V171.742C263.527 172.711 263.926 173.329 264.201 173.329H290.086C290.362 173.329 290.761 172.711 290.761 171.742V147.456C290.761 146.487 290.362 145.869 290.086 145.869H264.201ZM290.086 174.09H264.201C263.382 174.09 262.766 173.081 262.766 171.742V147.456C262.766 146.117 263.382 145.108 264.201 145.108H290.086C290.905 145.108 291.522 146.117 291.522 147.456V171.742C291.522 173.081 290.905 174.09 290.086 174.09Z" fill="#2C2C2C"/>
<path d="M79.0946 199.925H103.077C103.616 199.925 104.054 200.741 104.054 201.745V224.247C104.054 225.252 103.616 226.068 103.077 226.068H79.0946C78.5541 226.068 78.1172 225.252 78.1172 224.247V201.745C78.1172 200.741 78.5541 199.925 79.0946 199.925Z" fill="white"/>
<path d="M79.0963 200.306C78.8588 200.306 78.4995 200.879 78.4995 201.745V224.248C78.4995 225.114 78.8588 225.688 79.0963 225.688H103.078C103.316 225.688 103.675 225.114 103.675 224.248V201.745C103.675 200.879 103.316 200.306 103.078 200.306H79.0963ZM103.078 226.449H79.0963C78.3214 226.449 77.7383 225.503 77.7383 224.248V201.745C77.7383 200.491 78.3214 199.544 79.0963 199.544H103.078C103.853 199.544 104.436 200.491 104.436 201.745V224.248C104.436 225.503 103.853 226.449 103.078 226.449Z" fill="#2C2C2C"/>
<path d="M235.62 105.405L210.682 105.303C210.384 105.301 210.143 105.059 210.145 104.763C210.146 104.464 210.387 104.224 210.683 104.224L235.622 104.326C235.92 104.327 236.162 104.569 236.161 104.866C236.159 105.163 235.917 105.405 235.62 105.405Z" fill="#2C2C2C"/>
<path d="M229.901 123.469L229.781 123.449H218.085C217.787 123.449 217.545 123.207 217.545 122.911C217.545 122.612 217.787 122.37 218.085 122.37H229.775C229.883 122.289 230.113 122.101 230.582 121.679C231.144 119.564 236.376 99.8785 236.615 99.1143C236.909 98.1764 237.922 97.9694 238.439 97.9953L243.966 97.7501C244.264 97.6755 244.515 97.9679 244.528 98.2647C244.54 98.5616 244.31 98.8143 244.013 98.8265L238.438 99.0716C238.381 99.0686 237.762 99.0595 237.645 99.4355C237.453 100.051 233.595 114.537 231.584 122.11L231.424 122.37C230.621 123.102 230.216 123.469 229.901 123.469Z" fill="#2C2C2C"/>
<path d="M231.545 118.877L214.703 118.782C214.466 118.78 214.257 118.623 214.189 118.396L210.172 105.02C210.089 104.734 210.25 104.434 210.535 104.347C210.821 104.266 211.121 104.426 211.208 104.711L215.107 117.705L231.548 117.798C231.846 117.8 232.087 118.043 232.085 118.342C232.084 118.638 231.842 118.877 231.545 118.877Z" fill="#2C2C2C"/>
<path d="M217.921 118.762C217.681 118.762 217.46 118.601 217.398 118.354L214.009 104.997C213.936 104.71 214.111 104.416 214.4 104.341C214.695 104.271 214.982 104.445 215.055 104.732L218.445 118.091C218.518 118.378 218.342 118.671 218.054 118.745L217.921 118.762Z" fill="#2C2C2C"/>
<path d="M228.744 118.762L228.649 118.753C228.357 118.701 228.161 118.419 228.214 118.127L230.531 105.2C230.583 104.906 230.858 104.711 231.157 104.764C231.451 104.816 231.647 105.096 231.594 105.39L229.275 118.317C229.229 118.579 229.001 118.762 228.744 118.762Z" fill="#2C2C2C"/>
<path d="M225.294 118.562C224.996 118.559 224.754 118.308 224.76 118.011L225.054 105.012C225.06 104.712 225.303 104.457 225.605 104.484C225.903 104.492 226.138 104.738 226.133 105.035L225.839 118.034C225.832 118.329 225.587 118.567 225.294 118.562Z" fill="#2C2C2C"/>
<path d="M221.109 118.818C220.84 118.818 220.608 118.619 220.573 118.346L218.911 105.092C218.873 104.795 219.083 104.525 219.378 104.489C219.672 104.458 219.943 104.661 219.981 104.958L221.644 118.212C221.682 118.508 221.471 118.777 221.176 118.814L221.109 118.818Z" fill="#2C2C2C"/>
<path d="M234.395 109.708L211.938 109.566C211.64 109.565 211.401 109.321 211.402 109.024C211.404 108.726 211.646 108.487 211.941 108.487L234.398 108.628C234.698 108.63 234.937 108.873 234.935 109.17C234.934 109.469 234.692 109.708 234.395 109.708Z" fill="#2C2C2C"/>
<path d="M233.046 114.461L213.54 114.284C213.242 114.281 213.003 114.037 213.006 113.739C213.009 113.439 213.256 113.267 213.549 113.205L233.051 113.381C233.349 113.384 233.588 113.628 233.585 113.925C233.582 114.223 233.342 114.461 233.046 114.461Z" fill="#2C2C2C"/>
<path d="M220.574 124.031C220.081 124.031 219.679 124.433 219.679 124.926C219.679 125.42 220.081 125.821 220.574 125.821C221.068 125.821 221.469 125.42 221.469 124.926C221.469 124.433 221.068 124.031 220.574 124.031ZM220.574 126.901C219.486 126.901 218.6 126.015 218.6 124.926C218.6 123.838 219.486 122.952 220.574 122.952C221.663 122.952 222.549 123.838 222.549 124.926C222.549 126.015 221.663 126.901 220.574 126.901Z" fill="#2C2C2C"/>
<path d="M227.681 124.031C227.186 124.031 226.784 124.433 226.784 124.926C226.784 125.42 227.186 125.821 227.681 125.821C228.173 125.821 228.575 125.42 228.575 124.926C228.575 124.433 228.173 124.031 227.681 124.031ZM227.681 126.901C226.591 126.901 225.705 126.015 225.705 124.926C225.705 123.838 226.591 122.952 227.681 122.952C228.77 122.952 229.654 123.838 229.654 124.926C229.654 126.015 228.77 126.901 227.681 126.901Z" fill="#2C2C2C"/>
<path d="M245.111 97.7608C244.831 97.7608 244.601 97.9892 244.601 98.2723C244.601 98.554 244.831 98.7824 245.111 98.7824C245.393 98.7824 245.621 98.554 245.621 98.2723C245.621 97.9892 245.393 97.7608 245.111 97.7608ZM245.111 99.8618C244.236 99.8618 243.521 99.1478 243.521 98.2723C243.521 97.3954 244.236 96.6814 245.111 96.6814C245.988 96.6814 246.7 97.3954 246.7 98.2723C246.7 99.1478 245.988 99.8618 245.111 99.8618Z" fill="#2C2C2C"/>
<path d="M310.606 128.038H293.572V111.003H310.606V128.038Z" fill="#FCCA19"/>
<path d="M303.164 128.038H300.424V111.003H303.164V128.038Z" fill="#2C2C2C"/>
<path d="M297.078 106.334L296.986 106.34C296.561 106.396 296.303 106.997 296.161 107.494C295.907 108.377 295.978 109.015 296.38 109.441C297.259 110.37 299.541 110.252 300.936 110.044C299.78 108.311 298.069 106.334 297.078 106.334ZM299.095 111.239C297.821 111.239 296.426 111.008 295.621 110.158C294.954 109.45 294.797 108.456 295.158 107.203C295.49 106.049 296.058 105.409 296.848 105.304C298.99 105.029 301.718 109.286 302.24 110.144L302.618 110.764L301.908 110.925C301.668 110.98 300.448 111.239 299.095 111.239Z" fill="#2C2C2C"/>
<path d="M302.264 110.042C303.66 110.251 305.944 110.368 306.82 109.439C307.221 109.013 307.293 108.377 307.039 107.494C306.896 106.997 306.638 106.396 306.214 106.34C305.238 106.204 303.456 108.256 302.264 110.042ZM304.105 111.239C302.751 111.239 301.532 110.98 301.291 110.925L300.582 110.764L300.96 110.144C301.483 109.286 304.225 105.029 306.352 105.304C307.142 105.409 307.71 106.049 308.042 107.203C308.403 108.456 308.246 109.45 307.579 110.158C306.774 111.008 305.379 111.239 304.105 111.239Z" fill="#2C2C2C"/>
<path d="M29.6152 215.6C29.6152 208.982 34.9804 203.617 41.5986 203.617C48.2168 203.617 53.5835 208.982 53.5835 215.6C53.5835 222.219 48.2168 227.585 41.5986 227.585C34.9804 227.585 29.6152 222.219 29.6152 215.6Z" fill="white"/>
<path d="M41.5984 203.998C35.2009 203.998 29.9956 209.203 29.9956 215.6C29.9956 221.999 35.2009 227.205 41.5984 227.205C47.9973 227.205 53.2026 221.999 53.2026 215.6C53.2026 209.203 47.9973 203.998 41.5984 203.998ZM41.5984 227.966C34.7807 227.966 29.2344 222.418 29.2344 215.6C29.2344 208.784 34.7807 203.236 41.5984 203.236C48.416 203.236 53.9639 208.784 53.9639 215.6C53.9639 222.418 48.416 227.966 41.5984 227.966Z" fill="#2C2C2C"/>
<path d="M47.8084 214.627H42.463V209.202C42.463 208.724 42.0763 208.337 41.5982 208.337C41.1217 208.337 40.7335 208.724 40.7335 209.202V214.627H35.4444C34.9663 214.627 34.5781 215.012 34.5781 215.49C34.5781 215.969 34.9663 216.356 35.4444 216.356H40.7335V221.84C40.7335 222.319 41.1217 222.703 41.5982 222.703C42.0763 222.703 42.463 222.319 42.463 221.84V216.356H47.8084C48.2864 216.356 48.6731 215.969 48.6731 215.49C48.6731 215.012 48.2864 214.627 47.8084 214.627Z" fill="#2C2C2C"/>
<path d="M269.581 164.891H280.633C281.405 164.891 282.104 164.404 282.372 163.678L284.698 157.364C284.751 157.145 284.692 156.859 284.517 156.635C284.343 156.413 284.08 156.285 283.798 156.285H278.395L278.285 152.036C278.269 151.42 277.943 150.868 277.411 150.557L277.144 150.4C277.005 150.318 276.883 150.375 276.837 150.4C276.793 150.428 276.687 150.508 276.69 150.667L276.734 153.517L273.476 157.836L269.581 157.958V164.891ZM280.633 165.971H268.502V156.912L272.926 156.775L275.648 153.164L275.61 150.685C275.603 150.18 275.859 149.724 276.294 149.47C276.732 149.213 277.255 149.216 277.69 149.47L277.958 149.625C278.812 150.128 279.337 151.019 279.365 152.01L279.447 155.205H283.798C284.416 155.205 284.989 155.484 285.368 155.973C285.749 156.461 285.879 157.084 285.727 157.682L283.383 164.051C282.961 165.199 281.856 165.971 280.633 165.971Z" fill="#2C2C2C"/>
<path d="M91.0882 203.502L93.9535 209.309L100.36 210.24L95.7242 214.759L96.8188 221.14L91.0882 218.127L85.3577 221.14L86.4523 214.759L81.8164 210.24L88.2229 209.309L91.0882 203.502Z" fill="#FCCA19"/>
<path d="M206.36 26.4177L97.3027 26.4177V23.1794L206.36 23.1794V26.4177Z" fill="#2C2C2C"/>
<path d="M311.671 76.2957L311.188 76.0566C310.585 75.7582 310.241 75.6044 310.241 75.6044L309.748 75.3852L310.187 74.3987L310.678 74.6179C310.678 74.6179 311.033 74.7762 311.666 75.0899L312.15 75.3304L311.671 76.2957Z" fill="#2C2C2C"/>
<path d="M317.208 79.5321L316.754 79.2413C316.114 78.8302 315.504 78.4542 314.931 78.1147L314.469 77.8376L315.02 76.9119L315.484 77.186C316.066 77.5331 316.685 77.9152 317.337 78.3339L317.791 78.6262L317.208 79.5321ZM322.414 83.3063L321.99 82.9713C321.414 82.5176 320.845 82.0838 320.284 81.6727L319.851 81.353L320.49 80.4836L320.924 80.8033C321.492 81.222 322.07 81.662 322.658 82.1249L323.081 82.4567L322.414 83.3063ZM327.192 87.589L326.808 87.2114C326.292 86.7045 325.773 86.2142 325.254 85.7422L324.853 85.3784L325.581 84.5806L325.98 84.9445C326.51 85.4271 327.038 85.9265 327.563 86.4426L327.949 86.8217L327.192 87.589ZM331.44 92.3878L331.103 91.9646C330.656 91.4028 330.2 90.8547 329.737 90.3218L329.384 89.9153L330.199 89.2074L330.553 89.6139C331.024 90.1589 331.491 90.7192 331.948 91.2932L332.283 91.7149L331.44 92.3878ZM334.989 97.7073L334.716 97.2415C334.355 96.6234 333.982 96.0189 333.597 95.4267L333.302 94.9745L334.206 94.3853L334.5 94.8375C334.894 95.445 335.276 96.0646 335.646 96.6979L335.919 97.1623L334.989 97.7073ZM337.659 103.502L337.469 102.998C337.214 102.328 336.943 101.673 336.656 101.031L336.436 100.538L337.42 100.098L337.641 100.589C337.936 101.252 338.216 101.926 338.476 102.614L338.668 103.12L337.659 103.502ZM339.299 109.656L339.198 109.126C339.067 108.422 338.915 107.731 338.743 107.052L338.613 106.529L339.658 106.265L339.79 106.787C339.967 107.491 340.124 108.202 340.261 108.926L340.358 109.458L339.299 109.656ZM339.873 116.018C339.873 116.018 339.799 114.314 339.764 113.721L339.702 112.801L340.778 112.727L340.95 115.975L339.873 116.018ZM340.922 122.492L339.844 122.452C339.844 122.452 339.908 120.496 339.915 119.769L339.921 119.231L341.001 119.241L340.995 119.782C340.987 120.515 340.969 121.239 340.943 121.954L340.922 122.492ZM340.328 128.985L339.257 128.842L339.329 128.307C339.423 127.612 339.504 126.904 339.576 126.184L339.629 125.646L340.704 125.751L340.649 126.287C340.579 127.023 340.494 127.741 340.399 128.449L340.328 128.985ZM339.049 135.384L338.003 135.121L338.134 134.597C338.304 133.919 338.466 133.227 338.615 132.517L338.725 131.989L339.781 132.211L339.67 132.741C339.518 133.461 339.355 134.169 339.181 134.862L339.049 135.384ZM336.957 141.58L335.955 141.175L336.159 140.676C336.423 140.027 336.674 139.362 336.913 138.682L337.093 138.172L338.11 138.529L337.93 139.038C337.685 139.737 337.428 140.417 337.158 141.08L336.957 141.58ZM333.936 147.393L333.017 146.83L333.297 146.37C333.662 145.775 334.014 145.161 334.355 144.526L334.611 144.05L335.561 144.56L335.307 145.035C334.957 145.688 334.593 146.32 334.22 146.932L333.936 147.393ZM329.952 152.603L329.148 151.884L329.506 151.481C329.973 150.96 330.429 150.418 330.872 149.857L331.205 149.433L332.053 150.102L331.718 150.525C331.26 151.105 330.791 151.662 330.311 152.201L329.952 152.603ZM325.083 157.003L324.421 156.152L324.849 155.82C325.403 155.391 325.951 154.94 326.489 154.47L326.893 154.115L327.605 154.926L327.198 155.281C326.644 155.767 326.081 156.228 325.508 156.673L325.083 157.003ZM319.503 160.456L319.001 159.501L319.478 159.25C320.102 158.921 320.721 158.574 321.335 158.209L321.798 157.932L322.352 158.857L321.888 159.134C321.259 159.512 320.622 159.867 319.98 160.205L319.503 160.456ZM313.441 162.951L313.095 161.931L313.605 161.756C314.272 161.531 314.941 161.286 315.606 161.022L316.108 160.823L316.506 161.826L316.005 162.024C315.321 162.297 314.636 162.548 313.952 162.779L313.441 162.951ZM307.089 164.547L306.887 163.487L307.417 163.387C308.105 163.254 308.802 163.104 309.504 162.936L310.029 162.811L310.279 163.86L309.754 163.985C309.038 164.156 308.325 164.309 307.619 164.445L307.089 164.547Z" fill="#2C2C2C"/>
<path d="M301.6 165.248L301.504 164.174L303.638 163.966L303.754 165.041L301.6 165.248Z" fill="#2C2C2C"/>
<path d="M274.106 80.9149L273.872 79.8614L274.399 79.7441C275.777 79.4366 276.602 79.4046 276.635 79.4031L277.174 79.3863L277.211 80.4627L276.673 80.4825C276.673 80.4825 275.903 80.513 274.633 80.7962L274.106 80.9149ZM268.24 83.2626L267.742 82.3064L268.219 82.0568C268.912 81.6959 269.576 81.3838 270.206 81.1144L270.702 80.9027L271.125 81.8939L270.631 82.107C270.025 82.3658 269.385 82.6657 268.718 83.0144L268.24 83.2626ZM263.024 86.886L262.338 86.0532L262.753 85.7092C263.336 85.2281 263.918 84.782 264.489 84.3694L264.927 84.0558L265.556 84.9312L265.119 85.2463C264.567 85.6437 264.006 86.0746 263.44 86.542L263.024 86.886ZM258.541 91.4169L257.726 90.709L258.079 90.3025C258.57 89.7376 259.06 89.1971 259.549 88.6871L259.922 88.2974L260.701 89.0434L260.328 89.4331C259.85 89.931 259.373 90.4562 258.894 91.0104L258.541 91.4169ZM254.801 96.5918L253.893 96.0117L254.182 95.558C254.584 94.9293 254.99 94.3248 255.4 93.7463L255.71 93.3048L256.592 93.9275L256.28 94.369C255.882 94.9353 255.485 95.523 255.092 96.1381L254.801 96.5918Z" fill="#2C2C2C"/>
<path d="M9.97828 147.038L9.12873 146.374L9.46218 145.948C9.97525 145.295 10.4487 144.732 10.8628 144.263L11.2191 143.858L12.0275 144.572L11.6713 144.977C11.2694 145.434 10.808 145.979 10.3102 146.615L9.97828 147.038ZM6.50704 152.405L5.56769 151.875L5.83107 151.405C6.20408 150.744 6.57862 150.118 6.94858 149.528L7.23631 149.071L8.14979 149.645L7.86206 150.102C7.49971 150.677 7.1343 151.288 6.77195 151.935L6.50704 152.405ZM3.85795 158.222L2.85006 157.834L3.04342 157.332C3.31137 156.634 3.58998 155.963 3.87621 155.313L4.09395 154.82L5.08203 155.254L4.86429 155.747C4.58415 156.382 4.31165 157.039 4.05131 157.718L3.85795 158.222ZM2.07515 164.358L1.0231 164.12L1.14185 163.594C1.30628 162.87 1.48441 162.166 1.67472 161.477L1.81786 160.958L2.85768 161.244L2.71458 161.765C2.52884 162.437 2.35376 163.126 2.1939 163.833L2.07515 164.358ZM1.18906 170.685L0.114185 170.6L0.156819 170.061C0.216195 169.324 0.292317 168.6 0.383666 167.892L0.452169 167.356L1.52247 167.493L1.45397 168.027C1.36414 168.721 1.29107 169.428 1.23169 170.148L1.18906 170.685ZM0.103555 177.14L0.0745996 176.602C0.0350153 175.863 0.0121842 175.137 0.00457187 174.421L0 173.883L1.07945 173.872L1.08402 174.412C1.09163 175.111 1.11294 175.822 1.15252 176.542L1.18144 177.083L0.103555 177.14ZM1.02614 183.625L0.915007 183.095C0.767327 182.387 0.634897 181.67 0.522234 180.947L0.438491 180.413L1.50574 180.248L1.58796 180.78C1.6991 181.485 1.82696 182.184 1.97159 182.874L2.08277 183.402L1.02614 183.625ZM2.92314 189.891L2.73588 189.386C2.48467 188.706 2.2487 188.018 2.02642 187.318L1.8635 186.803L2.89269 186.481L3.05561 186.994C3.2718 187.678 3.50322 188.35 3.74834 189.011L3.93408 189.516L2.92314 189.891ZM5.66057 195.829L5.40934 195.352C5.0744 194.716 4.7486 194.066 4.43193 193.402L4.20051 192.916L5.17335 192.45L5.4063 192.939C5.71536 193.586 6.03508 194.224 6.36394 194.85L6.61513 195.326L5.66057 195.829ZM9.09676 201.389L8.79227 200.945C8.38729 200.353 7.9869 199.748 7.5941 199.125L7.30634 198.669L8.21677 198.091L8.50606 198.548C8.89277 199.16 9.28557 199.755 9.68293 200.336L9.98742 200.782L9.09676 201.389ZM13.1054 206.546L12.7568 206.136C12.3 205.595 11.8387 205.032 11.3774 204.447L11.0425 204.026L11.8875 203.354L12.2224 203.779C12.6776 204.355 13.1313 204.906 13.5804 205.437L13.9291 205.848L13.1054 206.546ZM17.5998 211.287L17.2146 210.91C16.7228 210.434 16.2097 209.918 15.6769 209.368L15.3024 208.98L16.0773 208.231L16.4534 208.619C16.9771 209.159 17.4825 209.667 17.9667 210.139L18.3534 210.515L17.5998 211.287ZM22.5981 215.544L22.1626 215.226C22.1626 215.226 21.514 214.753 20.4407 213.844L20.0281 213.497L20.7239 212.674L21.1365 213.021C22.1672 213.89 22.799 214.354 22.799 214.354L23.2344 214.672L22.5981 215.544Z" fill="#2C2C2C"/>
<path d="M278.139 127.206H277.06V127.026L276.894 126.977L276.374 126.831L276.664 125.791L277.183 125.936C277.831 126.116 278.139 126.272 278.139 126.665V127.206ZM270.437 128.008L270.026 127.011L270.525 126.805C271.25 126.505 271.961 126.266 272.638 126.091L273.159 125.957L273.428 127.002L272.905 127.136C272.277 127.297 271.617 127.522 270.935 127.803L270.437 128.008ZM265.032 131.303L264.394 130.433L264.83 130.115C265.455 129.655 266.055 129.243 266.634 128.873L267.089 128.582L267.67 129.491L267.217 129.782C266.657 130.141 266.073 130.538 265.469 130.983L265.032 131.303ZM260.553 135.707L259.688 135.062L260.011 134.629C260.449 134.042 260.935 133.472 261.459 132.938L261.835 132.553L262.607 133.306L262.229 133.693C261.74 134.192 261.284 134.724 260.876 135.275L260.553 135.707ZM258.137 141.438L257.088 141.185L257.214 140.66C257.389 139.932 257.61 139.218 257.87 138.534L258.062 138.03L259.07 138.414L258.878 138.918C258.635 139.559 258.428 140.23 258.263 140.913L258.137 141.438ZM256.779 147.794L256.736 147.257C256.693 146.675 256.666 146.068 256.666 145.442L256.675 144.518L257.755 144.525L257.745 145.442C257.745 146.04 257.77 146.619 257.812 147.176L257.854 147.713L256.779 147.794ZM258.284 154.24L258.088 153.738C258.074 153.704 257.768 152.914 257.441 151.603L257.31 151.081L258.358 150.819L258.488 151.341C258.798 152.579 259.093 153.345 259.093 153.345L259.289 153.847L258.284 154.24Z" fill="#2C2C2C"/>
<path d="M74.938 250.422C74.9349 255.563 70.7634 259.733 65.6204 259.73C60.4775 259.729 56.309 255.558 56.3105 250.414C56.3121 245.27 60.4836 241.101 65.6265 241.103C70.771 241.106 74.9395 245.277 74.938 250.422Z" fill="#DFDFDF"/>
<path d="M283.499 232.166C283.495 237.308 279.324 241.478 274.181 241.474C269.038 241.473 264.87 237.303 264.871 232.159C264.873 227.014 269.044 222.845 274.187 222.847C279.332 222.85 283.5 227.021 283.499 232.166Z" fill="#DFDFDF"/>
<path d="M39.6022 48.1524C39.6022 50.6888 37.5438 52.7457 35.0073 52.7441C32.4694 52.7441 30.4141 50.6858 30.4141 48.1493C30.4156 45.6114 32.4724 43.556 35.0104 43.5575C37.5468 43.5591 39.6037 45.6159 39.6022 48.1524Z" fill="#DFDFDF"/>
<path d="M269.04 37.0263C269.038 39.5643 266.981 41.6212 264.445 41.6196C261.907 41.6181 259.852 39.5613 259.852 37.0248C259.853 34.4884 261.911 32.4315 264.448 32.433C266.984 32.433 269.04 34.4899 269.04 37.0263Z" fill="#FCCA19"/>
<path d="M135.139 277.79C135.139 280.328 133.081 282.383 130.544 282.383C128.008 282.381 125.951 280.323 125.951 277.787C125.953 275.25 128.01 273.195 130.548 273.197C133.084 273.197 135.141 275.253 135.139 277.79Z" fill="#FCCA19"/>
<path d="M232.672 209.612C232.672 212.15 230.614 214.206 228.078 214.206C225.541 214.204 223.484 212.146 223.484 209.609C223.486 207.073 225.543 205.017 228.081 205.019C230.617 205.019 232.674 207.076 232.672 209.612Z" fill="#FCCA19"/>
<path d="M16.1045 88.4067C15.0814 88.4067 14.1192 88.804 13.396 89.5272C12.6713 90.2504 12.2725 91.2126 12.2725 92.2357C12.2725 93.2603 12.6698 94.224 13.3945 94.9472C14.1177 95.6719 15.0799 96.0708 16.1045 96.0708C18.2177 96.0708 19.9366 94.3534 19.9381 92.2402C19.9381 90.1271 18.2177 88.4067 16.1045 88.4067ZM16.1045 97.5933C14.6749 97.5933 13.3276 97.036 12.3166 96.0236C11.3057 95.0112 10.7485 93.6668 10.75 92.2357C10.75 90.8061 11.3088 89.4617 12.3197 88.4508C13.3306 87.4399 14.6764 86.8842 16.1045 86.8842C19.0566 86.8842 21.4606 89.2897 21.4606 92.2402C21.459 95.1938 19.0535 97.5933 16.1045 97.5933Z" fill="#FCCA19"/>
<path d="M249.962 67.0053C246.172 67.0038 243.086 70.0883 243.083 73.8793C243.081 77.6717 246.168 80.7563 249.959 80.7578C253.749 80.7593 256.836 77.6748 256.837 73.8838C256.839 70.0914 253.753 67.0068 249.962 67.0053ZM249.959 82.2803C245.327 82.2788 241.559 78.5106 241.561 73.8793C241.564 69.2494 245.333 65.4813 249.962 65.4828C254.593 65.4844 258.361 69.2525 258.36 73.8838C258.358 78.5137 254.588 82.2818 249.959 82.2803Z" fill="white"/>
<path d="M221.703 39.2695L219.375 37.0224C221.678 34.6382 222.948 31.5034 222.948 28.1936C222.948 24.8959 221.692 21.7779 219.412 19.4165L221.739 17.1693C224.606 20.1366 226.185 24.0509 226.185 28.1936C226.185 32.3469 224.593 36.2809 221.703 39.2695Z" fill="#FCCA19"/>
<path d="M230.894 47.4414L228.527 45.2323C232.855 40.5979 235.238 34.5476 235.238 28.1928C235.238 21.7193 232.761 15.5746 228.264 10.8899L230.598 8.64731C235.678 13.9379 238.475 20.8789 238.475 28.1928C238.475 35.3697 235.783 42.2056 230.894 47.4414Z" fill="#FCCA19"/>
<path d="M240.209 55.7483L237.826 53.5575C244.207 46.6226 247.718 37.6141 247.718 28.1931C247.718 18.4645 244.004 9.24899 237.26 2.24562L239.591 -3.05176e-05C246.92 7.61081 250.954 17.6226 250.954 28.1931C250.954 38.4271 247.139 48.2136 240.209 55.7483Z" fill="#FCCA19"/>
<path d="M297.871 175.655L297.737 175.133C297.541 174.359 297.332 173.671 297.142 173.096L296.971 172.586L297.996 172.245L298.165 172.758C298.364 173.353 298.579 174.064 298.783 174.866L298.915 175.389L297.871 175.655ZM298.606 181.949L298.599 181.409C298.591 180.716 298.551 180.008 298.48 179.303L298.427 178.766L299.5 178.659L299.553 179.195C299.628 179.932 299.669 180.672 299.678 181.398L299.684 181.936L298.606 181.949ZM298.553 188.461L297.528 188.124L297.697 187.611C297.914 186.956 298.092 186.276 298.229 185.589L298.335 185.06L299.393 185.271L299.287 185.799C299.142 186.53 298.952 187.253 298.722 187.949L298.553 188.461ZM295.05 194.112L294.244 193.396L294.602 192.993C295.067 192.471 295.494 191.918 295.878 191.347L296.178 190.9L297.073 191.499L296.773 191.947C296.365 192.559 295.905 193.151 295.409 193.71L295.05 194.112ZM289.569 197.879L289.118 196.898L289.607 196.672C290.246 196.378 290.863 196.044 291.44 195.68L291.895 195.389L292.474 196.301L292.017 196.589C291.4 196.98 290.741 197.338 290.059 197.653L289.569 197.879ZM283.121 199.406L283.01 198.334L283.546 198.278C284.252 198.205 284.953 198.094 285.626 197.96L286.154 197.849L286.37 198.906L285.842 199.014C285.137 199.16 284.4 199.273 283.659 199.35L283.121 199.406ZM279.792 199.458L279.253 199.419C277.908 199.322 277.075 199.153 277.04 199.145L276.514 199.037L276.73 197.98L277.258 198.09C277.258 198.09 278.062 198.252 279.33 198.343L279.869 198.381L279.792 199.458Z" fill="#2C2C2C"/>
<path d="M206.509 15.7939L96.5527 15.7939C97.4571 11.6848 101.12 8.83779 105.771 9.01592L197.592 9.00525C202.431 9.00525 205.763 12.4004 206.509 15.7939Z" fill="#DFDFDF"/>
<path d="M191.143 10.9083C190.914 10.9083 190.728 11.0941 190.728 11.3239V13.4752C190.728 13.7036 190.914 13.8893 191.143 13.8893H197.141C197.369 13.8893 197.555 13.7036 197.555 13.4752V11.3239C197.555 11.0941 197.369 10.9083 197.141 10.9083H191.143ZM197.141 14.311H191.143C190.681 14.311 190.307 13.935 190.307 13.4752V11.3239C190.307 10.8626 190.681 10.4881 191.143 10.4881H197.141C197.601 10.4881 197.975 10.8626 197.975 11.3239V13.4752C197.975 13.935 197.601 14.311 197.141 14.311Z" fill="white"/>
<path d="M195.722 13.6033H191.443C191.17 13.6033 190.957 13.3734 190.957 13.1009V11.7002C190.957 11.4246 191.17 11.1978 191.443 11.1978H194.2L195.722 13.6033Z" fill="white"/>
<path d="M198.421 12.0992V12.5818L198.275 12.7356H197.77V11.9469H198.275L198.421 12.0992Z" fill="white"/>
<path d="M109.611 11.7901L109.025 12.4083C108.487 11.8967 107.758 11.5846 106.956 11.5846C106.141 11.5846 105.4 11.9089 104.861 12.4387L104.266 11.8282C104.961 11.1461 105.91 10.7305 106.956 10.7305C107.983 10.7305 108.918 11.1324 109.611 11.7901Z" fill="white"/>
<path d="M108.73 12.711L108.141 13.3367C107.831 13.0414 107.412 12.8617 106.952 12.8617C106.486 12.8617 106.06 13.0474 105.749 13.355L105.146 12.7353C105.612 12.2832 106.249 12.0015 106.952 12.0015C107.643 12.0015 108.269 12.2725 108.73 12.711Z" fill="white"/>
<path d="M107.841 13.6532L106.955 14.5864L106.057 13.6668C106.29 13.4385 106.608 13.2999 106.955 13.2999C107.299 13.2999 107.611 13.4339 107.841 13.6532Z" fill="white"/>
<path d="M116.617 14.5867H117.791V10.4349H116.617V14.5867Z" fill="white"/>
<path d="M114.873 14.5867H116.047V11.3529H114.873V14.5867Z" fill="white"/>
<path d="M113.256 14.5867H114.428V12.1309H113.256V14.5867Z" fill="white"/>
<path d="M111.664 14.5867H112.836V13.3595H111.664V14.5867Z" fill="white"/>
<path d="M251.959 206.947H270.024C271.056 206.947 271.892 206.111 271.892 205.078V187.013C271.892 185.981 271.056 185.144 270.024 185.144H251.959C250.928 185.144 250.09 185.981 250.09 187.013V205.078C250.09 206.111 250.927 206.947 251.959 206.947Z" fill="white" stroke="#2C2C2C"/>
<path d="M256.476 192.453C256.465 192.354 256.243 189.99 257.66 188.342C258.455 187.42 259.587 186.915 261.028 186.839C262.403 186.767 263.522 187.145 264.353 187.961C265.912 189.495 265.83 192.016 265.826 192.123L264.754 192.082C264.755 192.06 264.818 189.916 263.595 188.717C262.989 188.123 262.131 187.852 261.085 187.906C259.951 187.965 259.075 188.344 258.479 189.033C257.359 190.327 257.54 192.327 257.543 192.346L256.476 192.453Z" fill="#2C2C2C"/>
<path d="M255.435 193.206C255.121 193.206 254.866 193.463 254.866 193.777L253.455 202.461C253.462 202.689 253.718 202.945 254.032 202.945L268.57 202.786C268.89 202.786 269.145 202.529 269.145 202.216L267.822 193.861C267.815 193.463 267.56 193.206 267.246 193.206H255.435ZM254.038 204.011C253.13 204.011 252.398 203.277 252.398 202.374L253.809 193.691C253.802 192.875 254.535 192.141 255.435 192.141H267.246C268.147 192.141 268.879 192.875 268.879 193.777L270.203 202.132C270.209 203.117 269.477 203.851 268.576 203.851L254.038 204.011Z" fill="#2C2C2C"/>
<path d="M259.743 202.136L257.709 197.305L258.659 196.893L260.022 200.137L264.719 194.328L265.518 194.993L259.743 202.136Z" fill="#2C2C2C"/>
<defs>
<linearGradient id="paint0_linear_6646_3916" x1="155.843" y1="163.917" x2="54.7765" y2="298.734" gradientUnits="userSpaceOnUse">
<stop stop-color="#5E95F6"/>
<stop offset="1" stop-color="#4A89F4"/>
</linearGradient>
<linearGradient id="paint1_linear_6646_3916" x1="209.839" y1="66.8515" x2="91.694" y2="154.616" gradientUnits="userSpaceOnUse">
<stop stop-color="#5E95F6"/>
<stop offset="1" stop-color="#4486F0"/>
</linearGradient>
</defs>
</svg>
