<svg width="71" height="55" viewBox="0 0 71 55" fill="none" xmlns="http://www.w3.org/2000/svg">
<path fill-rule="evenodd" clip-rule="evenodd" d="M66.5408 27.8893C66.0085 29.6198 64.9352 31.134 63.4786 32.2094C62.0221 33.2848 60.259 33.8648 58.4485 33.8641H12.5176C11.29 33.8606 10.1137 33.3713 9.24563 32.5033C8.37757 31.6352 7.88832 30.4589 7.88477 29.2313V10.9088C7.88705 9.54779 8.21886 8.20752 8.85184 7.00262C9.48483 5.79773 10.4002 4.76403 11.5196 3.98987H59.9658C61.7068 3.99519 63.3751 4.6887 64.6068 5.91915C65.8385 7.1496 66.5337 8.81716 66.5408 10.5582V27.8893Z" fill="#FCCA19"/>
<path d="M13.9728 45.8408C13.918 46.0821 13.8155 46.31 13.6713 46.511C13.5271 46.7121 13.3442 46.8822 13.1332 47.0115C12.9223 47.1407 12.6876 47.2265 12.443 47.2636C12.1984 47.3008 11.9488 47.2887 11.709 47.2279C11.4692 47.1672 11.2439 47.0591 11.0465 46.9099C10.8491 46.7608 10.6835 46.5737 10.5595 46.3596C10.4355 46.1455 10.3556 45.9088 10.3245 45.6633C10.2934 45.4179 10.3118 45.1687 10.3784 44.9304L11.1742 41.8216H6.45365C4.74059 41.8074 3.10222 41.1183 1.89403 39.9038C0.68583 38.6893 0.00526695 37.0474 0 35.3342L0 10.5582C0.00712034 7.83465 1.09219 5.22471 3.01801 3.29889C4.94384 1.37306 7.55377 0.288004 10.2773 0.280884H59.9643C62.689 0.286224 65.3007 1.3705 67.228 3.29652C69.1552 5.22254 70.2412 7.83348 70.2484 10.5582V31.5511C70.2395 34.2758 69.1531 36.8865 67.2264 38.8132C65.2997 40.7399 62.6891 41.8262 59.9643 41.8351H31.5534C29.6335 45.6056 26.8177 48.8473 23.3532 51.2762C20.1581 53.3962 16.4791 54.6744 12.6578 54.9919C12.1695 55.0375 11.6831 54.8873 11.3056 54.5743C10.9281 54.2613 10.6904 53.8111 10.6448 53.3229C10.5992 52.8346 10.7494 52.3482 11.0624 51.9707C11.3754 51.5932 11.8256 51.3555 12.3139 51.3099C15.5186 51.0502 18.6049 49.9805 21.2829 48.2011C24.0747 46.3196 26.6238 43.4401 28.7346 39.2253C28.8828 38.9005 29.121 38.625 29.421 38.4314C29.721 38.2377 30.0702 38.1342 30.4272 38.1329H59.9643C61.7077 38.1275 63.378 37.4321 64.6101 36.1988C65.8422 34.9654 66.5358 33.2944 66.5394 31.5511V10.5582C66.5322 8.81717 65.837 7.14961 64.6053 5.91916C63.3736 4.68871 61.7053 3.9952 59.9643 3.98988H10.2773C8.53636 3.99344 6.86776 4.6866 5.63674 5.91762C4.40572 7.14864 3.71256 8.81724 3.70899 10.5582V35.3342C3.71078 36.0706 4.00407 36.7762 4.52473 37.2969C5.04539 37.8176 5.75105 38.1109 6.48737 38.1126H13.5547C13.7095 38.1134 13.8636 38.1338 14.0133 38.1733C14.2508 38.2308 14.4744 38.335 14.6713 38.4798C14.8681 38.6246 15.0341 38.8072 15.1596 39.0169C15.2852 39.2265 15.3677 39.4591 15.4025 39.7009C15.4372 39.9428 15.4234 40.1892 15.362 40.4257L13.9728 45.8408Z" fill="#2C2C2C"/>
<path fill-rule="evenodd" clip-rule="evenodd" d="M49.7404 16.587C50.4073 16.587 51.0592 16.7848 51.6137 17.1553C52.1682 17.5258 52.6004 18.0524 52.8556 18.6685C53.1108 19.2846 53.1776 19.9626 53.0475 20.6167C52.9174 21.2707 52.5962 21.8715 52.1247 22.3431C51.6531 22.8146 51.0523 23.1358 50.3983 23.2659C49.7442 23.396 49.0662 23.3292 48.4501 23.074C47.834 22.8188 47.3074 22.3866 46.9369 21.8321C46.5664 21.2776 46.3686 20.6257 46.3686 19.9588C46.3686 19.0646 46.7239 18.207 47.3562 17.5746C47.9886 16.9423 48.8462 16.587 49.7404 16.587ZM35.5249 16.587C36.1918 16.587 36.8437 16.7848 37.3982 17.1553C37.9527 17.5258 38.3848 18.0524 38.64 18.6685C38.8952 19.2846 38.962 19.9626 38.8319 20.6167C38.7018 21.2707 38.3807 21.8715 37.9091 22.3431C37.4376 22.8146 36.8368 23.1358 36.1827 23.2659C35.5286 23.396 34.8507 23.3292 34.2345 23.074C33.6184 22.8188 33.0918 22.3866 32.7213 21.8321C32.3508 21.2776 32.1531 20.6257 32.1531 19.9588C32.1531 19.0646 32.5083 18.207 33.1406 17.5746C33.773 16.9423 34.6306 16.587 35.5249 16.587ZM21.3093 16.587C21.9762 16.587 22.6281 16.7848 23.1826 17.1553C23.7371 17.5258 24.1693 18.0524 24.4245 18.6685C24.6797 19.2846 24.7464 19.9626 24.6163 20.6167C24.4862 21.2707 24.1651 21.8715 23.6935 22.3431C23.222 22.8146 22.6212 23.1358 21.9671 23.2659C21.3131 23.396 20.6351 23.3292 20.019 23.074C19.4029 22.8188 18.8763 22.3866 18.5058 21.8321C18.1353 21.2776 17.9375 20.6257 17.9375 19.9588C17.9375 19.0646 18.2927 18.207 18.9251 17.5746C19.5574 16.9423 20.4151 16.587 21.3093 16.587Z" fill="white"/>
</svg>
