<svg width="61" height="53" viewBox="0 0 61 53" fill="none" xmlns="http://www.w3.org/2000/svg">
<path d="M54.1028 50.9279V50.9751V51.029V51.0695V51.1167V51.1639V51.2516V51.2988V51.3393V51.3865V51.4337V51.4741V51.5146V51.5551V51.5955V51.636V51.6764V51.7169V51.7574V51.7978V51.8383V51.8787V51.9125V51.9462V51.9799L54.069 52.0136L54.0353 52.0473H54.0016H53.9679L53.9342 52.0811C53.6139 52.3176 53.2263 52.4453 52.8282 52.4452H8.56978C8.24368 52.4468 7.92307 52.3614 7.64096 52.1978C7.35885 52.0342 7.12546 51.7984 6.96481 51.5146V51.4741V51.4337V51.3932V51.3528V51.3123V51.2719V51.2313V51.1909V51.1504V51.1033V51.056V51.0156V51.2516V51.2044V51.11V51.0223V50.9684V50.9212V43.6583C6.96481 43.1664 7.16019 42.6947 7.50798 42.347C7.85576 41.9992 8.32746 41.8038 8.81931 41.8038C9.31115 41.8038 9.78283 41.9992 10.1306 42.347C10.4784 42.6947 10.6738 43.1664 10.6738 43.6583V49.0532H21.2411V34.3925C21.2411 33.9007 21.4364 33.429 21.7842 33.0812C22.132 32.7334 22.6037 32.538 23.0956 32.538C23.5874 32.538 24.0591 32.7334 24.4069 33.0812C24.7547 33.429 24.9501 33.9007 24.9501 34.3925V49.0599H36.0163V40.192C36.0163 39.7002 36.2117 39.2285 36.5595 38.8807C36.9073 38.5329 37.379 38.3375 37.8708 38.3375C38.3627 38.3375 38.8344 38.5329 39.1822 38.8807C39.53 39.2285 39.7253 39.7002 39.7253 40.192V49.0802H50.4005V26.6643C50.3852 26.4118 50.4218 26.1589 50.508 25.9211C50.5941 25.6832 50.728 25.4655 50.9014 25.2814C51.0748 25.0972 51.284 24.9504 51.5162 24.8501C51.7484 24.7498 51.9987 24.6981 52.2516 24.6981C52.5046 24.6981 52.7549 24.7498 52.9871 24.8501C53.2193 24.9504 53.4285 25.0972 53.6019 25.2814C53.7753 25.4655 53.9092 25.6832 53.9953 25.9211C54.0814 26.1589 54.118 26.4118 54.1028 26.6643V50.9279ZM57.7241 10.9719C57.8954 10.7997 58.0991 10.6629 58.3233 10.5693C58.5475 10.4757 58.788 10.4273 59.0309 10.4266C59.2739 10.426 59.5146 10.4732 59.7393 10.5656C59.964 10.658 60.1684 10.7938 60.3406 10.9652C60.5129 11.1365 60.6497 11.3401 60.7432 11.5644C60.8368 11.7886 60.8853 12.0291 60.8859 12.272C60.8865 12.515 60.8393 12.7557 60.7469 12.9804C60.6545 13.2052 60.5187 13.4095 60.3473 13.5817L38.9161 35.1006C38.6441 35.3727 38.2944 35.5539 37.9152 35.6191C37.536 35.6843 37.1459 35.6304 36.7986 35.4648L23.0146 28.7751L2.85119 42.7951C2.44746 43.0524 1.95986 43.1436 1.49043 43.0496C1.02099 42.9556 0.606101 42.6837 0.332551 42.2908C0.059 41.8979 -0.0520055 41.4145 0.0227611 40.9416C0.0975276 40.4687 0.352263 40.0431 0.733684 39.7537L21.7873 25.1133C22.0573 24.9272 22.3718 24.8161 22.6988 24.7913C23.0258 24.7664 23.3535 24.8287 23.6485 24.9717L37.2235 31.5602L57.7241 10.9719Z" fill="#2C2C2C"/>
<path fill-rule="evenodd" clip-rule="evenodd" d="M8.56836 26.4283V9.29943C8.57369 7.32234 9.36099 5.42768 10.7584 4.02904C12.1558 2.63039 14.0497 1.84135 16.0268 1.83423H44.7884C51.1881 1.83423 52.0041 5.26676 53.2719 7.59331L36.2982 23.4543L22.1366 17.1153L8.56836 26.4283Z" fill="#FCCA19"/>
<path d="M10.4238 9.29945V22.9283L21.0653 15.6048C21.3261 15.4252 21.6289 15.3159 21.9443 15.2876C22.2597 15.2592 22.5771 15.3128 22.8658 15.4429L35.9282 21.2829L51.0002 7.20219C50.1573 5.53651 48.9772 3.70224 44.7894 3.70224H16.0278C14.5426 3.70935 13.1203 4.30296 12.0707 5.35382C11.0211 6.40469 10.4292 7.8277 10.4238 9.31295V9.29945ZM6.71484 26.4418V9.31295C6.72019 6.84464 7.70309 4.47895 9.44845 2.73359C11.1938 0.98823 13.5595 0.0053446 16.0278 0H44.7894C51.5735 0 53.1582 3.21672 54.4867 5.91417C54.6418 6.22438 54.7902 6.52781 54.8981 6.72338C55.0926 7.08453 55.1623 7.49983 55.0965 7.9047C55.0306 8.30958 54.8328 8.68137 54.5339 8.96227L37.5602 24.8233C37.2817 25.0815 36.9308 25.2484 36.5547 25.3014C36.1786 25.3544 35.7953 25.2911 35.4562 25.12L22.3061 19.2396L9.62135 27.9658C9.34322 28.1556 9.0187 28.2661 8.68255 28.2854C8.34641 28.3047 8.01134 28.2322 7.7133 28.0755C7.41526 27.9189 7.16549 27.6841 6.99078 27.3962C6.81607 27.1084 6.72301 26.7785 6.72159 26.4418H6.71484Z" fill="#2C2C2C"/>
</svg>
