<svg width="20" height="20" viewBox="0 0 20 20" fill="none" xmlns="http://www.w3.org/2000/svg">
<path fill-rule="evenodd" clip-rule="evenodd" d="M5.95145 10.8918C5.39254 10.8918 4.93945 10.4388 4.93945 9.87985L4.93945 5.83186C4.93945 3.03731 7.20488 0.771874 9.99944 0.771875C12.794 0.771874 15.0594 3.03731 15.0594 5.83186L15.0594 9.87985C15.0594 10.4388 14.6063 10.8918 14.0474 10.8918C13.4885 10.8918 13.0354 10.4388 13.0354 9.87985L13.0354 5.83186C13.0354 4.15513 11.6762 2.79587 9.99944 2.79587C8.32271 2.79587 6.96345 4.15513 6.96345 5.83186L6.96345 9.87985C6.96345 10.4388 6.51036 10.8918 5.95145 10.8918Z" fill="#2C2C2C"/>
<path fill-rule="evenodd" clip-rule="evenodd" d="M5.56553 5.83203C5.58652 5.83203 5.60758 5.83204 5.62871 5.83204L14.4345 5.83203C15.2643 5.83199 15.9829 5.83194 16.5631 5.90728C17.1867 5.98826 17.7854 6.17025 18.2893 6.6339C18.7932 7.09754 19.0243 7.67906 19.1568 8.29382C19.28 8.86574 19.3397 9.58182 19.4085 10.4088L19.9338 16.7119C19.9354 16.7312 19.937 16.7505 19.9386 16.7698C19.9773 17.2323 20.0145 17.6776 19.9944 18.0458C19.9719 18.4585 19.8723 18.9392 19.4976 19.3465C19.1228 19.7538 18.6521 19.8929 18.2426 19.9496C17.8773 20.0002 17.4305 20.0001 16.9665 20C16.9471 20 16.9277 20 16.9083 20H3.0917C3.07229 20 3.05291 20 3.03355 20C2.56948 20.0001 2.12265 20.0002 1.75736 19.9496C1.34793 19.8929 0.877202 19.7538 0.502445 19.3465C0.127687 18.9392 0.0281424 18.4585 0.00563022 18.0458C-0.0144547 17.6776 0.0227368 17.2323 0.0613632 16.7698C0.0629743 16.7505 0.0645879 16.7312 0.0661998 16.7119L0.586205 10.4718C0.58796 10.4508 0.589708 10.4298 0.59145 10.4088C0.66032 9.58183 0.719952 8.86574 0.843213 8.29382C0.975704 7.67906 1.20678 7.09754 1.71067 6.6339C2.21456 6.17025 2.81326 5.98826 3.4369 5.90728C4.01708 5.83194 4.73565 5.83199 5.56553 5.83203ZM3.69753 7.91443C3.29198 7.96709 3.15822 8.05239 3.08114 8.12332C3.00406 8.19424 2.90794 8.32045 2.82178 8.72023C2.72951 9.14838 2.67888 9.73178 2.60321 10.6399L2.0832 16.88C2.03799 17.4225 2.01511 17.7246 2.02662 17.9356C2.02677 17.9383 2.02692 17.941 2.02708 17.9436C2.02968 17.944 2.03234 17.9443 2.03505 17.9447C2.24432 17.9737 2.54726 17.976 3.0917 17.976H16.9083C17.4527 17.976 17.7557 17.9737 17.9649 17.9447C17.9677 17.9443 17.9703 17.944 17.9729 17.9436C17.9731 17.941 17.9732 17.9383 17.9734 17.9356C17.9849 17.7246 17.962 17.4225 17.9168 16.88L17.3968 10.6399C17.3211 9.73178 17.2705 9.14838 17.1782 8.72023C17.0921 8.32045 16.9959 8.19424 16.9189 8.12332C16.8418 8.05239 16.708 7.96709 16.3025 7.91443C15.8681 7.85803 15.2826 7.85603 14.3713 7.85603H5.62871C4.71745 7.85603 4.13186 7.85803 3.69753 7.91443Z" fill="#2C2C2C"/>
</svg>
